<?xml version="1.0" standalone="no"?>
<!DOCTYPE svg PUBLIC "-//W3C//DTD SVG 20010904//EN"
 "http://www.w3.org/TR/2001/REC-SVG-20010904/DTD/svg10.dtd">
<svg version="1.0" xmlns="http://www.w3.org/2000/svg"
 width="343.000000pt" height="593.000000pt" viewBox="0 0 343.000000 593.000000"
 preserveAspectRatio="xMidYMid meet">

<g transform="translate(0.000000,593.000000) scale(0.100000,-0.100000)"
fill="#000000" stroke="none">
<path d="M1387 5807 c-29 -45 -63 -98 -75 -118 l-22 -37 -106 34 c-145 46
-259 62 -322 45 -26 -7 -55 -20 -65 -29 -27 -24 -17 -78 24 -139 48 -72 193
-209 299 -285 l95 -67 7 52 c3 29 6 85 7 125 1 40 4 71 9 69 4 -3 2 -243 -5
-534 -10 -427 -15 -541 -29 -598 -26 -108 -32 -118 -71 -110 l-33 6 0 -46 0
-45 -208 0 -208 0 -317 -337 -317 -338 0 -100 0 -100 210 -240 c116 -132 214
-241 218 -243 4 -1 65 56 136 127 l129 130 -70 93 c-38 51 -91 118 -116 148
l-45 54 95 101 c53 55 99 101 103 103 8 3 12 -28 34 -266 11 -109 18 -146 30
-155 15 -11 19 -155 42 -1452 19 -1043 29 -1444 37 -1454 20 -24 147 -78 237
-100 258 -63 600 -57 848 15 125 36 212 87 189 111 -4 3 -33 -2 -65 -11 -293
-82 -768 -55 -993 57 l-64 32 -7 75 c-8 81 -53 2668 -47 2675 3 2 35 -5 73
-16 38 -10 71 -18 72 -16 1 1 -11 63 -27 137 -75 344 -36 594 118 760 31 34
69 68 85 76 27 14 28 17 28 89 0 60 -3 75 -15 75 -19 0 -19 1 11 95 31 96 39
212 49 773 4 204 9 372 11 372 2 0 85 -40 184 -90 l179 -90 3 -107 3 -107 60
-19 c102 -31 195 -41 259 -27 66 13 86 30 86 71 0 70 -69 157 -215 269 -56 44
-107 85 -114 93 -13 17 -12 21 53 159 l45 97 -92 57 c-78 49 -293 158 -350
177 -13 5 -29 -11 -70 -76z"/>
<path d="M1808 4187 l-88 -32 0 -72 c0 -70 1 -73 28 -87 16 -8 54 -42 85 -76
154 -166 193 -416 118 -760 -16 -74 -28 -136 -27 -137 3 -4 327 85 333 91 3 3
11 69 19 148 22 238 26 269 34 266 4 -2 50 -48 103 -103 l95 -101 -45 -54
c-25 -30 -78 -97 -116 -148 l-70 -93 129 -130 c71 -71 132 -128 136 -127 4 2
102 111 218 243 l210 240 0 100 0 100 -317 338 -317 337 -208 0 -208 0 0 45
c0 30 -4 45 -12 44 -7 0 -52 -15 -100 -32z"/>
<path d="M2190 2804 c0 -21 7 -158 15 -304 l15 -265 70 -220 c55 -173 67 -221
56 -227 -33 -19 -108 -87 -139 -128 -49 -64 -67 -119 -67 -200 0 -94 23 -151
103 -253 107 -137 111 -158 76 -371 -19 -114 -21 -139 -10 -205 31 -198 151
-327 339 -361 51 -9 79 -8 147 5 271 51 473 172 551 330 39 81 46 211 15 300
-32 92 -101 184 -184 248 -102 79 -164 145 -182 196 -10 30 -15 81 -15 167 0
156 -18 210 -94 289 -72 73 -121 88 -251 73 -53 -6 -97 -9 -99 -7 -1 2 -78
220 -171 484 -92 264 -169 482 -171 484 -2 2 -4 -13 -4 -35z"/>
</g>
</svg>
