<?xml version="1.0" standalone="no"?>
<!DOCTYPE svg PUBLIC "-//W3C//DTD SVG 20010904//EN"
 "http://www.w3.org/TR/2001/REC-SVG-20010904/DTD/svg10.dtd">
<svg version="1.0" xmlns="http://www.w3.org/2000/svg"
 width="1050.000000pt" height="720.000000pt" viewBox="0 0 1050.000000 720.000000"
 preserveAspectRatio="xMidYMid meet">

<g transform="translate(0.000000,720.000000) scale(0.100000,-0.100000)"
fill="#000000" stroke="none">
<path d="M4990 6733 c-230 -13 -529 -56 -765 -108 -141 -32 -402 -106 -495
-140 -36 -13 -81 -27 -100 -31 -46 -9 -156 -53 -258 -103 -45 -23 -84 -41 -86
-41 -3 0 -85 -44 -183 -97 -196 -106 -351 -201 -458 -281 -38 -29 -81 -60 -95
-70 -45 -31 -284 -248 -345 -313 -195 -206 -339 -415 -485 -702 -30 -59 -36
-65 -44 -48 -8 19 -1 61 19 116 14 39 -43 -39 -74 -100 -63 -124 -172 -538
-197 -744 -39 -330 -26 -647 37 -926 99 -431 328 -873 641 -1240 153 -179 408
-406 623 -557 33 -23 67 -48 75 -57 8 -8 37 -29 65 -47 28 -17 57 -39 64 -48
8 -9 44 -32 80 -50 157 -79 327 -167 338 -176 7 -6 19 -10 27 -10 8 0 27 -7
43 -15 15 -8 60 -26 98 -41 39 -14 79 -29 90 -34 239 -102 654 -220 971 -275
317 -56 540 -75 869 -75 387 0 660 29 1049 109 127 27 134 27 98 -4 -17 -14
-41 -25 -55 -25 -14 0 -29 -5 -32 -10 -3 -6 1 -10 10 -10 9 0 13 -4 10 -10 -4
-6 -13 -5 -25 2 -16 10 -23 8 -45 -12 -14 -13 -25 -18 -25 -12 0 7 5 12 10 12
6 0 10 5 10 11 0 6 -15 2 -34 -9 -19 -11 -44 -18 -58 -15 -18 3 -35 -6 -67
-36 -24 -23 -41 -44 -38 -48 4 -3 23 11 43 31 40 40 46 43 38 21 -4 -8 -11
-15 -17 -15 -8 0 -7 -4 1 -12 8 -8 15 -8 25 0 17 15 28 6 19 -16 -5 -15 -4
-15 12 -2 10 8 32 13 49 12 24 -2 28 0 17 8 -13 8 -13 11 -1 22 11 11 13 11 6
-1 -7 -11 -2 -13 23 -8 18 4 32 2 32 -3 0 -4 6 -10 13 -13 6 -2 1 -3 -13 -1
-21 3 -20 1 9 -14 26 -13 35 -14 38 -4 3 6 9 12 14 12 6 0 5 -8 -1 -20 -7 -14
-7 -20 0 -20 5 0 10 4 10 9 0 5 11 12 25 15 14 4 25 13 25 22 0 11 -6 14 -22
10 -13 -3 -17 -3 -10 0 10 5 9 9 -5 19 -10 8 -14 17 -9 22 5 4 11 2 13 -4 3
-7 11 -13 19 -13 8 0 14 -4 14 -10 0 -5 5 -10 10 -10 6 0 10 9 10 20 0 11 -6
20 -14 20 -8 0 -18 5 -21 10 -4 6 5 10 19 10 21 0 26 -5 26 -25 0 -25 10 -28
100 -27 3 0 16 3 29 7 16 5 21 4 17 -4 -4 -6 0 -11 8 -11 21 0 20 -20 -1 -36
-24 -18 -34 -17 -31 2 2 10 -3 19 -11 22 -8 3 -11 0 -7 -7 4 -6 2 -11 -3 -11
-22 0 -10 -18 19 -29 17 -5 30 -15 30 -22 0 -8 4 -8 15 1 25 21 27 5 3 -26
-20 -27 -21 -28 -1 -11 20 17 21 17 28 0 5 -10 7 -22 6 -28 -1 -5 3 -5 10 2
10 10 9 16 -2 29 -7 9 -14 24 -14 33 0 11 -8 15 -24 13 -20 -2 -22 0 -11 13 7
8 17 12 23 8 6 -4 8 0 4 10 -3 10 -3 17 2 17 5 0 12 -15 15 -34 4 -19 13 -37
22 -40 9 -3 12 -2 9 5 -4 6 2 13 14 16 12 3 21 9 21 14 0 5 5 9 12 9 6 0 3 -9
-7 -20 -16 -17 -16 -20 -2 -20 9 0 19 -5 23 -12 5 -7 2 -9 -7 -6 -10 4 -15 -1
-16 -13 -2 -26 9 -24 41 7 29 30 34 46 11 38 -8 -4 -15 -1 -15 6 0 8 8 10 22
7 12 -3 30 -2 40 4 20 11 24 5 8 -14 -40 -47 -50 -61 -46 -64 4 -4 13 3 67 53
15 13 17 12 22 -13 3 -15 0 -31 -5 -34 -6 -4 -8 -18 -4 -33 4 -15 11 -24 16
-21 6 3 15 -6 20 -21 8 -19 14 -24 21 -17 8 8 8 17 0 31 -10 18 -6 32 9 32 8
0 30 -45 30 -60 0 -6 -6 -9 -12 -7 -7 1 -13 -8 -13 -20 0 -12 -4 -25 -8 -29
-4 -4 -7 0 -7 9 0 10 -5 14 -15 11 -21 -9 -19 -17 10 -30 19 -9 27 -9 35 1 5
6 7 15 3 19 -4 4 6 0 22 -8 17 -9 35 -16 41 -16 22 0 38 -29 25 -44 -9 -11 -9
-16 0 -22 7 -4 15 -2 17 4 2 7 11 12 19 12 12 0 13 -3 4 -13 -13 -16 -5 -27
19 -27 10 0 23 -7 30 -15 9 -10 9 -15 1 -15 -6 0 -11 5 -11 10 0 6 -7 10 -17
10 -14 0 -14 -2 2 -20 14 -15 15 -20 4 -20 -12 0 -12 -2 0 -9 7 -5 10 -14 6
-20 -5 -8 1 -10 22 -5 35 9 47 26 28 40 -13 10 -11 15 17 32 30 19 31 22 13
28 -11 5 -29 16 -39 26 -11 10 -28 16 -37 13 -12 -4 -22 1 -29 15 -6 11 -20
20 -30 20 -11 0 -20 7 -20 15 0 19 41 16 57 -5 11 -13 12 -13 13 3 0 10 8 17
21 17 11 0 18 -4 14 -9 -3 -5 7 -12 22 -14 16 -2 11 -3 -9 -2 -21 2 -42 -3
-48 -10 -8 -10 3 -14 50 -19 43 -5 60 -11 60 -21 0 -8 7 -15 15 -15 23 0 18
-15 -9 -30 -29 -15 -42 -40 -21 -40 8 0 14 -3 13 -7 -3 -8 5 -13 23 -13 7 0 8
12 4 32 l-6 33 16 -30 c15 -27 15 -31 1 -41 -13 -9 -8 -11 24 -11 32 0 40 3
40 18 0 11 6 19 14 19 8 0 17 6 19 13 4 8 6 8 6 0 1 -6 10 -9 21 -6 15 4 20 0
20 -16 0 -13 6 -21 18 -21 14 0 15 -2 2 -10 -11 -7 -19 -5 -28 8 -11 15 -14
15 -22 2 -13 -21 -13 -23 11 -39 18 -11 23 -11 30 1 7 10 9 10 9 1 0 -21 18
-15 25 8 6 17 9 19 16 8 6 -10 9 -6 9 13 0 15 -4 30 -10 33 -15 9 -12 25 6 25
8 0 13 -4 10 -9 -3 -4 4 -25 14 -47 11 -21 20 -31 20 -21 0 10 7 17 18 16 10
0 12 -3 5 -6 -7 -2 -13 -9 -13 -14 0 -5 9 -4 20 3 10 7 16 15 11 18 -12 8 -21
66 -11 76 4 5 10 25 12 44 3 35 3 35 -39 35 -32 0 -39 3 -31 12 8 10 5 13 -10
13 -12 0 -24 5 -27 10 -4 6 -10 8 -15 5 -5 -3 -11 -1 -15 5 -3 5 -17 10 -31
10 -13 0 -24 5 -24 10 0 6 -7 10 -15 10 -9 0 -30 7 -47 16 -28 15 -30 15 -25
0 8 -21 -7 -21 -24 0 -9 11 -22 14 -42 10 -25 -5 -27 -3 -22 14 4 11 2 20 -4
20 -22 0 -26 2 -41 14 -23 20 -70 28 -86 15 -19 -16 -30 -4 -14 16 7 9 8 15 2
15 -6 0 -19 3 -29 6 -15 5 -16 4 -3 -5 13 -9 13 -12 1 -20 -8 -5 -11 -16 -8
-24 4 -12 1 -12 -19 -3 -13 6 -24 15 -24 19 0 4 -9 3 -20 -3 -21 -11 -40 -6
-40 11 0 13 54 11 68 -3 9 -9 12 -8 12 4 0 9 -5 20 -10 23 -6 4 -8 11 -5 16 9
13 -19 11 -32 -2 -6 -6 -17 -9 -25 -6 -9 4 -5 8 10 12 27 9 28 21 2 28 -11 3
-20 1 -20 -4 0 -5 -4 -9 -10 -9 -5 0 -10 6 -10 13 0 6 -51 36 -113 66 -61 29
-124 60 -139 67 -32 17 -68 18 -68 2 0 -6 -3 -8 -7 -4 -5 4 0 13 10 21 16 11
15 13 -12 25 -30 12 -68 47 -60 54 2 3 56 20 119 40 168 51 337 110 488 172
74 30 149 54 167 54 19 0 63 -15 100 -35 101 -52 263 -108 393 -134 87 -18
258 -14 344 8 65 17 182 69 253 114 67 41 162 127 230 207 25 30 55 65 66 77
12 12 18 27 14 33 -3 5 0 10 7 10 27 0 155 240 179 336 16 67 5 95 -76 189
-77 90 -102 113 -144 131 -27 12 -31 18 -20 25 10 6 5 9 -18 9 -47 0 -43 27
15 111 26 39 52 77 57 86 10 15 34 44 73 88 10 11 23 39 30 61 14 47 49 97 63
89 5 -4 9 -2 9 4 0 5 10 1 23 -10 12 -10 38 -32 57 -49 34 -29 80 -40 80 -20
0 6 9 10 20 10 11 0 20 6 20 14 0 8 9 18 20 21 11 4 18 11 15 16 -4 5 5 9 19
9 24 0 26 4 26 40 0 36 3 40 24 40 13 0 27 -6 29 -12 3 -7 6 7 6 31 1 42 0 43
-26 37 -14 -4 -29 -3 -32 3 -9 14 -61 1 -61 -15 0 -13 -18 -19 -47 -15 -8 1
-13 -10 -13 -29 0 -27 -3 -30 -30 -30 -23 0 -30 4 -30 20 0 11 -6 20 -13 20
-8 0 -13 14 -14 37 -1 26 2 32 9 22 7 -11 11 -11 15 -1 2 6 13 12 24 12 10 0
19 5 19 10 0 6 -7 10 -16 10 -11 0 -14 5 -10 16 3 9 6 27 6 40 0 19 5 24 25
24 28 0 29 3 15 30 -8 15 -5 31 15 69 14 28 25 65 25 82 0 17 8 46 19 63 10
17 19 48 19 68 1 21 8 51 17 68 9 17 13 34 10 39 -2 5 3 35 14 67 24 79 34
185 33 391 -1 349 -71 735 -181 998 -5 11 -30 72 -56 135 -64 152 -152 338
-179 375 -11 17 -21 33 -21 37 0 4 -18 30 -40 59 -21 28 -52 72 -68 98 -16 25
-32 48 -36 51 -4 3 -25 30 -46 60 -115 160 -228 271 -508 503 -73 61 -144 103
-155 92 -4 -3 0 -10 8 -15 8 -6 11 -10 7 -10 -15 0 -52 23 -98 62 -25 21 -48
38 -52 38 -4 0 -37 25 -74 55 -38 30 -74 55 -80 55 -7 0 -13 3 -13 8 0 4 -10
12 -23 18 -51 26 -157 83 -179 98 -47 31 -393 206 -503 255 -27 13 -89 42
-136 67 -47 24 -94 45 -105 47 -10 2 -26 7 -34 10 -8 3 -44 13 -80 22 -36 9
-99 25 -140 36 -41 12 -108 27 -149 35 -41 8 -90 18 -110 24 -20 5 -62 10 -95
10 -48 0 -56 -2 -47 -14 6 -7 41 -21 78 -30 38 -10 90 -25 116 -33 26 -8 58
-17 70 -19 82 -15 137 -29 137 -36 0 -4 12 -8 28 -8 15 -1 65 -16 112 -34 125
-50 315 -120 395 -146 69 -23 385 -165 395 -178 3 -4 30 -20 60 -36 30 -16 71
-41 90 -55 39 -29 62 -42 135 -79 28 -13 52 -27 55 -31 11 -14 99 -71 110 -71
6 0 8 -4 5 -10 -3 -5 -2 -10 4 -10 6 0 35 -23 66 -52 31 -28 66 -58 78 -67 12
-8 51 -41 86 -74 35 -33 85 -74 110 -93 25 -18 71 -63 101 -99 30 -37 60 -72
65 -78 6 -7 32 -41 60 -77 27 -36 52 -67 55 -70 14 -13 100 -129 100 -135 0
-4 14 -28 32 -53 17 -26 39 -59 49 -73 57 -85 240 -475 255 -544 4 -16 12 -36
18 -44 6 -8 10 -16 8 -18 -2 -2 2 -20 8 -41 32 -107 42 -141 50 -182 5 -25 20
-97 34 -160 16 -73 26 -146 26 -200 0 -47 5 -116 10 -154 13 -85 -4 -385 -26
-489 -9 -40 -18 -89 -20 -110 -7 -50 -63 -222 -103 -312 -73 -162 -181 -363
-233 -430 -4 -5 -33 -48 -64 -95 -106 -159 -246 -318 -426 -485 -111 -103
-282 -240 -363 -292 -25 -15 -45 -31 -45 -35 0 -5 -5 -8 -12 -8 -6 0 -25 -10
-42 -23 -93 -69 -368 -208 -604 -304 -111 -45 -445 -155 -587 -193 -177 -47
-356 -81 -545 -105 -63 -8 -153 -20 -200 -27 -106 -15 -722 -15 -865 0 -413
44 -633 85 -825 154 -30 11 -77 26 -105 32 -125 32 -329 110 -356 137 -11 11
-24 19 -30 19 -5 0 -47 17 -92 39 -45 21 -108 51 -139 65 -31 15 -90 48 -130
74 -40 27 -130 78 -200 114 -70 37 -154 83 -185 104 -86 54 -236 156 -249 168
-6 6 -30 22 -54 36 -109 64 -217 166 -417 390 -84 94 -256 337 -340 480 -57
97 -123 233 -123 253 0 7 -4 17 -9 23 -17 18 -32 77 -21 84 6 4 1 33 -15 79
-39 110 -73 259 -100 431 -38 242 -33 486 16 770 11 63 22 131 25 150 7 43 58
215 87 290 27 71 121 236 156 275 15 17 35 50 44 75 9 25 28 57 42 72 14 15
25 34 25 43 0 8 4 15 9 15 4 0 21 19 36 43 42 63 297 365 339 400 11 10 55 51
97 90 41 40 119 110 173 157 54 47 103 90 110 95 6 6 36 26 66 45 30 19 69 45
86 59 34 28 104 72 174 108 25 13 54 29 65 36 47 30 91 51 99 49 5 -2 12 1 15
5 9 13 130 73 146 73 8 0 15 3 15 8 0 4 15 13 33 20 17 7 40 18 49 23 10 5 27
9 37 9 11 0 22 4 26 10 3 5 38 19 78 32 40 12 74 26 77 29 3 4 22 10 43 14 20
4 37 11 37 16 0 5 7 6 16 2 9 -3 19 -2 23 3 8 12 72 34 98 34 12 0 23 4 25 8
5 12 284 78 413 96 61 9 135 21 165 26 94 16 123 20 185 25 33 3 76 7 95 10
19 3 96 9 170 15 164 12 210 19 210 31 0 8 -123 9 -250 2z m-3473 -2355 c-3
-8 -6 -5 -6 6 -1 11 2 17 5 13 3 -3 4 -12 1 -19z m-22 -93 l-15 -50 5 53 c4
55 17 90 22 62 2 -8 -4 -37 -12 -65z m16 -65 c-6 -30 -9 -36 -10 -19 -1 33 12
99 16 79 2 -8 -1 -35 -6 -60z m-41 -310 l-7 -75 -1 85 c-1 46 2 80 6 75 5 -6
5 -44 2 -85z m7270 -2105 c0 -19 -12 -26 -27 -14 -7 6 -13 25 -13 42 l0 30 20
-23 c11 -13 20 -28 20 -35z m-68 3 c-7 -7 -13 -30 -13 -52 -1 -23 -4 -31 -6
-18 -2 12 -8 22 -13 22 -16 0 -5 35 15 47 27 15 31 15 17 1z m128 -238 c0 -5
-4 -10 -10 -10 -5 0 -10 5 -10 10 0 6 5 10 10 10 6 0 10 -4 10 -10z m-60 -19
c0 -5 3 -16 6 -24 4 -10 -2 -14 -19 -14 -19 0 -26 6 -30 23 -3 20 0 24 19 24
13 0 24 -4 24 -9z m70 -191 c0 -5 -2 -10 -4 -10 -3 0 -8 5 -11 10 -3 6 -1 10
4 10 6 0 11 -4 11 -10z m-4850 -481 c0 -11 -3 -11 -24 -3 -23 9 -20 23 4 17
11 -3 20 -9 20 -14z m75 -29 c3 -5 2 -10 -4 -10 -5 0 -13 5 -16 10 -3 6 -2 10
4 10 5 0 13 -4 16 -10z m90 -20 c3 -5 1 -10 -4 -10 -6 0 -11 5 -11 10 0 6 2
10 4 10 3 0 8 -4 11 -10z m2472 -252 c-3 -8 -6 -5 -6 6 -1 11 2 17 5 13 3 -3
4 -12 1 -19z m80 -50 c-3 -7 -5 -2 -5 12 0 14 2 19 5 13 2 -7 2 -19 0 -25z
m-267 -8 c0 -5 -5 -10 -11 -10 -5 0 -7 5 -4 10 3 6 8 10 11 10 2 0 4 -4 4 -10z
m500 6 c0 -3 -4 -8 -10 -11 -5 -3 -10 -1 -10 4 0 6 5 11 10 11 6 0 10 -2 10
-4z m-29 -39 c-13 -13 -26 -3 -16 12 3 6 11 8 17 5 6 -4 6 -10 -1 -17z m19
-21 c0 -3 -4 -8 -10 -11 -5 -3 -10 -1 -10 4 0 6 5 11 10 11 6 0 10 -2 10 -4z
m287 -152 c-3 -3 -12 -4 -19 -1 -8 3 -5 6 6 6 11 1 17 -2 13 -5z m43 -14 c0
-5 -4 -10 -10 -10 -5 0 -10 5 -10 10 0 6 5 10 10 10 6 0 10 -4 10 -10z m30
-40 c0 -5 -7 -10 -15 -10 -8 0 -15 5 -15 10 0 6 7 10 15 10 8 0 15 -4 15 -10z
m170 -30 c11 -7 5 -8 -20 -4 -43 8 -51 14 -19 14 13 0 31 -5 39 -10z m85 -52
c14 -47 15 -80 3 -75 -7 2 -12 10 -10 17 1 7 -6 20 -18 30 -20 18 -28 36 -10
25 6 -3 7 1 4 9 -4 10 -1 16 9 16 8 0 18 -10 22 -22z m105 -38 c0 -5 -7 -10
-16 -10 -8 0 -12 5 -9 10 3 6 10 10 16 10 5 0 9 -4 9 -10z m40 -9 c0 -6 -4
-13 -10 -16 -5 -3 -10 1 -10 9 0 9 5 16 10 16 6 0 10 -4 10 -9z m-280 -5 c0
-2 -7 -7 -16 -10 -8 -3 -12 -2 -9 4 6 10 25 14 25 6z m130 -67 c0 -14 -17 -10
-23 5 -4 10 -1 13 9 9 7 -3 14 -9 14 -14z"/>
<path d="M5383 6734 c12 -12 58 -16 247 -19 119 -2 159 0 125 5 -72 13 -381
24 -372 14z"/>
<path d="M10124 6549 c-41 -51 -83 -89 -98 -89 -9 0 -16 -5 -16 -10 0 -19 34
-6 63 24 23 24 30 27 38 15 7 -11 8 -9 7 8 -2 12 2 22 7 23 17 3 65 34 65 42
0 4 -7 8 -15 8 -8 0 -15 -6 -15 -12 0 -9 -3 -9 -9 1 -7 11 -13 9 -27 -10z"/>
<path d="M9970 6440 c18 -12 30 -13 30 -2 0 4 -10 9 -22 9 -18 2 -20 0 -8 -7z"/>
<path d="M4931 5951 c-1 -10 -12 -12 -46 -9 -38 5 -45 3 -45 -11 0 -43 22 -52
123 -55 77 -2 101 -7 117 -21 11 -10 20 -23 20 -30 0 -7 7 -26 15 -42 9 -17
19 -57 23 -90 7 -56 8 -58 37 -58 22 0 31 5 33 20 7 35 35 89 60 115 20 20 23
32 19 65 -7 47 -28 65 -78 65 -45 0 -71 9 -63 21 3 5 -25 9 -63 9 -37 0 -83 4
-101 9 -23 7 -32 6 -33 -2 0 -7 -4 -3 -9 8 -5 11 -9 14 -9 6z"/>
<path d="M3910 5596 c-16 -16 -50 -31 -95 -42 -38 -9 -92 -25 -119 -35 -27
-11 -55 -19 -62 -19 -17 0 -88 -33 -92 -42 -2 -5 -16 -8 -32 -8 -15 0 -33 -7
-40 -15 -7 -8 -25 -15 -39 -15 -17 0 -37 -10 -52 -26 -24 -25 -24 -26 -5 -40
23 -16 76 -19 76 -4 0 6 6 10 14 10 8 0 16 5 18 12 3 8 32 11 98 9 79 -2 101
-6 137 -28 39 -22 46 -24 80 -13 32 10 106 53 123 70 3 3 31 14 64 24 l58 18
-6 51 c-8 55 -31 100 -56 106 -8 2 -22 5 -30 8 -8 2 -26 -7 -40 -21z"/>
<path d="M5534 5302 c-6 -4 -14 -17 -18 -29 -4 -13 -12 -23 -19 -23 -6 0 1
-12 15 -27 14 -16 32 -40 39 -55 17 -33 86 -108 100 -108 5 0 40 -28 78 -62
65 -61 81 -73 186 -131 54 -31 144 -51 160 -36 16 16 49 10 79 -16 16 -14 33
-25 38 -25 4 0 8 -6 8 -12 1 -7 17 -26 38 -41 35 -27 42 -29 113 -25 85 5 92
1 115 -66 16 -47 46 -80 81 -90 18 -6 30 0 55 27 18 19 53 41 78 51 25 9 52
22 61 29 17 13 100 159 110 194 6 20 4 21 -30 17 -85 -11 -97 -15 -113 -33
-24 -28 -92 -35 -216 -23 -59 6 -128 7 -154 3 -26 -4 -51 -4 -55 0 -4 4 -37 9
-73 12 -61 4 -118 20 -130 35 -3 4 -14 12 -25 18 -27 15 -65 72 -65 99 0 19
-94 137 -126 157 -11 8 -7 58 5 58 3 0 6 13 7 29 1 23 -4 31 -24 36 -14 3 -33
0 -47 -9 -13 -8 -45 -18 -72 -21 -46 -7 -52 -5 -103 34 -54 41 -74 48 -96 33z"/>
<path d="M7600 5219 c-19 -11 -42 -30 -51 -41 -16 -20 -14 -68 2 -68 5 0 9 -6
9 -14 0 -24 43 -26 102 -4 32 11 58 24 58 29 0 14 -33 79 -41 79 -4 0 -9 9
-12 20 -7 25 -23 25 -67 -1z"/>
<path d="M5960 5195 c0 -8 2 -15 4 -15 2 0 6 7 10 15 3 8 1 15 -4 15 -6 0 -10
-7 -10 -15z"/>
<path d="M6153 5178 c-24 -8 -33 -17 -33 -33 0 -28 40 -65 71 -65 14 0 30 -5
36 -11 6 -6 21 -9 34 -7 18 2 25 10 27 31 4 32 -17 61 -60 83 -31 16 -31 16
-75 2z"/>
<path d="M5865 5160 c-3 -5 -1 -10 4 -10 6 0 11 5 11 10 0 6 -2 10 -4 10 -3 0
-8 -4 -11 -10z"/>
<path d="M4320 5070 c0 -51 56 -111 75 -81 7 12 -25 82 -45 98 -23 19 -30 15
-30 -17z"/>
<path d="M4245 4853 c-4 -25 -18 -71 -31 -101 -15 -35 -24 -73 -24 -107 0 -47
3 -55 31 -76 76 -58 99 -82 99 -104 0 -13 -7 -25 -15 -29 -8 -3 -15 -12 -15
-20 0 -22 -43 -61 -70 -64 -13 -1 -34 5 -48 14 -26 17 -43 16 -147 -9 -45 -11
-55 -16 -42 -22 10 -4 38 -50 63 -101 24 -51 57 -106 72 -121 15 -15 26 -30
25 -33 0 -3 5 -11 12 -17 11 -11 19 -8 41 12 16 15 39 25 58 25 17 0 40 7 50
15 11 8 32 15 47 15 15 0 35 7 44 16 14 14 14 19 2 38 -18 28 -30 209 -14 225
6 6 27 11 47 11 37 1 59 11 103 46 30 25 33 40 12 68 -8 11 -15 28 -15 37 0
10 -12 31 -26 46 -32 35 -67 101 -59 113 3 5 32 -4 65 -21 32 -16 61 -29 64
-29 3 0 -2 12 -10 28 -8 15 -17 44 -21 65 -3 23 -12 41 -22 44 -9 2 -37 15
-63 28 -26 14 -59 27 -74 29 -15 3 -32 10 -38 16 -5 5 -29 10 -52 10 l-42 0
-7 -47z"/>
<path d="M3622 4553 c-37 -7 -42 -32 -27 -129 8 -49 15 -113 15 -141 0 -57
-19 -143 -32 -143 -4 0 -8 -7 -8 -15 0 -20 10 -19 27 3 11 13 15 14 20 4 4
-10 9 -7 17 9 7 15 25 26 50 31 52 11 61 -5 30 -54 -21 -32 -22 -41 -12 -58 7
-11 16 -20 19 -20 4 0 24 -23 45 -51 36 -46 42 -50 69 -44 17 4 38 7 48 7 28
-1 20 14 -15 29 -18 7 -45 22 -60 32 -22 16 -25 24 -18 46 10 32 25 121 23
141 -1 8 7 33 17 55 15 33 27 44 58 53 22 7 48 12 58 13 48 3 -37 17 -104 18
-83 1 -135 22 -183 74 -24 26 -29 38 -25 66 3 19 9 37 13 40 10 7 13 42 4 40
-3 -1 -16 -4 -29 -6z"/>
<path d="M5219 4537 c-15 -12 -15 -15 8 -35 32 -28 83 -55 90 -48 9 9 -19 66
-32 66 -7 0 -18 7 -25 15 -15 18 -20 18 -41 2z"/>
<path d="M4077 4486 c-7 -18 1 -26 25 -26 24 0 23 17 -1 29 -14 8 -20 7 -24
-3z"/>
<path d="M4970 4470 c-12 -8 -11 -10 8 -10 12 0 22 5 22 10 0 13 -11 13 -30 0z"/>
<path d="M5365 4380 c3 -5 11 -10 16 -10 6 0 7 5 4 10 -3 6 -11 10 -16 10 -6
0 -7 -4 -4 -10z"/>
<path d="M4663 4318 c-13 -15 -25 -49 -33 -95 -21 -129 24 -263 89 -263 9 0
36 20 59 45 40 42 41 47 28 68 -8 12 -17 63 -21 117 -9 115 -25 150 -70 150
-20 0 -39 -8 -52 -22z"/>
<path d="M2140 4180 c0 -11 4 -20 9 -20 5 0 11 -6 13 -14 3 -13 6 -13 22 0 19
13 19 14 1 34 -23 26 -45 26 -45 0z"/>
<path d="M7995 4182 c-45 -32 -56 -98 -23 -129 43 -40 51 -34 54 39 2 66 -11
105 -31 90z"/>
<path d="M2160 4060 c0 -11 -4 -20 -9 -20 -5 0 -11 -10 -14 -22 -3 -13 -15
-59 -27 -103 -20 -72 -21 -91 -14 -195 5 -63 8 -146 7 -184 -2 -78 12 -102 51
-92 17 4 27 16 31 36 4 17 18 42 31 55 20 20 22 28 13 52 -5 16 -23 44 -39 62
-17 18 -30 41 -30 51 0 50 49 100 98 100 11 0 50 -9 86 -20 61 -19 68 -20 82
-5 11 11 13 19 6 28 -5 7 -13 23 -17 36 -8 26 -50 67 -78 77 -11 3 -16 12 -13
21 5 12 2 13 -11 8 -34 -15 -83 -17 -98 -5 -10 9 -15 32 -15 76 0 57 -2 64
-20 64 -13 0 -20 -7 -20 -20z"/>
<path d="M3498 4069 c-26 -15 -22 -36 9 -44 22 -5 32 -2 46 16 9 12 16 23 15
24 -12 10 -56 12 -70 4z"/>
<path d="M7912 4008 c-2 -52 9 -74 32 -61 14 8 14 12 1 37 -8 16 -15 37 -15
47 0 39 -17 17 -18 -23z"/>
<path d="M4044 4016 c-10 -8 -15 -18 -11 -22 4 -4 15 0 24 9 22 21 12 31 -13
13z"/>
<path d="M5433 4008 c-13 -18 -34 -68 -28 -68 2 0 13 18 24 40 19 41 21 50 4
28z"/>
<path d="M8333 3974 c-17 -7 -16 -55 1 -101 8 -21 17 -49 20 -63 3 -14 18 -40
34 -58 31 -35 59 -44 46 -14 -4 9 -8 49 -8 87 -2 108 -41 171 -93 149z"/>
<path d="M4310 3951 c-14 -28 -13 -63 5 -87 8 -12 11 -24 8 -28 -3 -3 11 -6
31 -6 29 0 39 -4 43 -20 4 -15 13 -20 37 -19 17 1 24 3 15 6 -32 8 -62 120
-40 147 14 17 -5 26 -54 26 -24 0 -38 -6 -45 -19z"/>
<path d="M7952 3889 c-13 -5 -27 -7 -32 -4 -4 3 -13 -1 -19 -9 -17 -21 64 -42
96 -25 28 15 29 25 4 39 -23 12 -19 12 -49 -1z"/>
<path d="M5504 3871 c3 -5 -4 -12 -17 -16 -13 -4 -17 -8 -9 -12 23 -9 12 -22
-35 -43 l-48 -21 50 -18 c66 -24 119 -52 179 -95 39 -27 53 -33 68 -25 19 10
22 18 18 59 -2 21 0 22 13 11 9 -7 31 -11 49 -9 27 2 34 8 36 29 2 14 -6 37
-19 53 l-22 28 -27 -31 -28 -30 -26 20 c-15 12 -26 31 -26 45 0 17 -6 24 -19
24 -11 0 -23 5 -26 10 -9 14 -68 13 -83 -2 -17 -17 -28 -2 -12 17 10 12 10 15
-4 15 -10 0 -15 -4 -12 -9z"/>
<path d="M7419 3780 c-30 -22 -100 -35 -96 -18 10 46 -110 -31 -129 -82 -17
-48 -17 -95 1 -110 8 -7 15 -18 15 -26 0 -21 -42 -54 -69 -54 -24 0 -53 -19
-108 -70 -12 -11 -32 -20 -44 -20 -19 0 -21 -4 -14 -37 4 -21 11 -39 16 -41 5
-2 9 -15 9 -28 0 -22 -4 -25 -32 -21 -25 2 -34 9 -36 24 -3 18 -10 22 -43 21
-25 0 -43 -6 -46 -14 -3 -8 -11 -14 -18 -14 -17 0 -75 -48 -75 -63 0 -6 -12
-24 -27 -39 -15 -15 -21 -28 -15 -28 25 0 12 -38 -14 -43 -41 -8 -62 2 -56 25
4 18 3 19 -15 8 -11 -7 -32 -32 -47 -56 -37 -59 -83 -59 -151 0 -16 14 -38 26
-48 26 -11 0 -27 10 -36 21 -17 21 -17 20 -18 -44 0 -62 2 -67 33 -98 23 -22
34 -42 34 -61 0 -16 20 -67 45 -114 25 -46 45 -91 45 -99 0 -19 14 -19 43 -1
26 16 265 20 284 5 6 -6 17 -9 25 -8 26 3 38 -1 38 -15 0 -7 9 -25 20 -39 11
-14 20 -37 20 -51 0 -23 2 -25 18 -15 14 9 26 8 54 -5 31 -15 42 -16 77 -5 23
7 41 16 41 21 0 12 105 10 137 -4 45 -19 74 -57 66 -87 -3 -14 -7 -27 -9 -29
-1 -2 4 -19 12 -37 8 -19 14 -61 14 -93 0 -46 4 -63 20 -77 18 -17 20 -28 16
-114 -2 -53 -8 -111 -12 -129 -6 -28 -2 -38 21 -62 23 -24 26 -33 18 -56 -5
-16 -22 -35 -38 -44 -33 -18 -59 -92 -51 -147 2 -17 1 -34 -2 -38 -4 -4 -8
-11 -8 -16 -1 -5 -2 -13 -3 -19 0 -5 -8 -10 -16 -10 -15 0 -65 -87 -65 -113 0
-8 -17 -25 -37 -38 -22 -14 -41 -36 -46 -54 -15 -50 -23 -60 -53 -66 -16 -3
-28 -10 -26 -17 1 -7 -7 -12 -18 -12 -11 0 -20 -5 -20 -11 0 -23 74 0 195 60
177 88 426 249 595 384 104 84 303 286 376 382 73 95 174 250 174 264 0 6 4
11 9 11 11 0 25 75 16 89 -3 7 -13 7 -23 2 -76 -38 -106 -51 -117 -51 -8 0
-22 -16 -31 -35 -13 -28 -14 -38 -4 -50 16 -20 3 -38 -102 -145 -27 -27 -48
-57 -48 -68 0 -34 -45 -38 -99 -10 -20 11 -25 10 -41 -12 -10 -14 -30 -38 -44
-53 -19 -21 -26 -39 -26 -70 -1 -50 -11 -65 -68 -101 -32 -20 -42 -32 -37 -44
3 -9 3 -14 0 -11 -3 3 -22 -10 -42 -29 -21 -19 -39 -30 -41 -23 -2 6 -9 8 -14
5 -6 -4 -8 -2 -5 3 10 16 -23 39 -84 61 -31 11 -67 30 -79 42 l-23 23 52 47
c36 34 51 56 51 74 0 15 -6 26 -13 26 -12 0 -22 28 -56 155 -14 52 -43 149
-52 170 -4 11 -11 34 -15 50 -4 17 -8 35 -10 40 -2 11 -47 128 -59 158 -4 11
-3 17 5 17 9 0 10 12 6 43 -4 23 -9 62 -13 87 -4 34 -7 40 -13 25 -5 -14 -10
-1 -15 44 -5 45 -4 70 6 88 10 19 10 33 1 66 -9 33 -8 53 3 92 33 123 37 143
41 199 3 40 9 63 20 71 11 8 15 20 11 34 -8 33 2 51 30 51 13 0 22 4 19 9 -3
5 3 20 14 34 11 14 20 38 20 54 0 16 9 46 20 68 21 41 27 95 11 95 -5 0 -13 9
-16 20 -8 25 -32 25 -66 0z m101 -1910 c0 -13 -11 -13 -30 0 -12 8 -11 10 8
10 12 0 22 -4 22 -10z"/>
<path d="M8296 3761 c-4 -5 3 -7 14 -4 23 6 26 13 6 13 -8 0 -17 -4 -20 -9z"/>
<path d="M5365 3715 c6 -18 9 -45 19 -144 3 -31 26 -41 26 -12 0 29 -3 36 -15
34 -5 -2 -2 3 7 9 15 11 15 14 -2 47 -10 20 -23 47 -30 61 -6 14 -8 16 -5 5z"/>
<path d="M2632 3669 c2 -7 10 -15 17 -17 8 -3 12 1 9 9 -2 7 -10 15 -17 17 -8
3 -12 -1 -9 -9z"/>
<path d="M3292 3628 c2 -6 10 -14 16 -16 7 -2 10 2 6 12 -7 18 -28 22 -22 4z"/>
<path d="M6603 3588 c-5 -7 -9 -20 -8 -28 1 -8 3 -23 3 -32 2 -14 11 -18 47
-18 62 0 59 33 -6 74 -21 13 -28 14 -36 4z"/>
<path d="M3241 3574 c0 -11 3 -14 6 -6 3 7 2 16 -1 19 -3 4 -6 -2 -5 -13z"/>
<path d="M5990 3439 c0 -5 5 -7 10 -4 6 3 10 8 10 11 0 2 -4 4 -10 4 -5 0 -10
-5 -10 -11z"/>
<path d="M4667 3383 c-4 -3 -7 -23 -7 -44 0 -41 -26 -66 -56 -55 -12 5 -13 -3
-8 -44 8 -57 2 -62 -96 -75 -30 -4 -64 -14 -75 -21 -11 -8 -27 -14 -37 -14 -9
0 -29 -16 -44 -36 l-27 -35 21 -44 c18 -37 31 -48 95 -79 41 -20 77 -39 80
-42 2 -3 1 -17 -3 -32 -10 -32 -25 -88 -41 -159 -7 -29 -16 -53 -21 -53 -4 0
-7 -3 -6 -7 7 -33 -55 -108 -80 -98 -10 3 -12 0 -8 -10 4 -10 -3 -17 -22 -21
-15 -4 -35 -13 -44 -21 -9 -9 -31 -16 -47 -17 -40 -2 -48 -12 -26 -36 19 -20
19 -22 0 -56 -18 -34 -18 -35 4 -89 19 -45 21 -58 11 -70 -10 -12 -9 -15 3
-15 9 0 30 -12 48 -27 18 -15 46 -28 63 -29 48 -3 49 -3 42 -19 -4 -11 2 -15
24 -15 35 0 41 17 8 22 -15 2 -24 11 -26 25 -2 12 -9 27 -17 33 -8 6 -11 18
-8 26 3 8 0 14 -5 14 -22 0 -84 181 -68 197 3 3 22 7 43 9 21 2 60 7 87 10 43
6 51 4 65 -15 19 -25 50 -33 69 -18 7 5 14 8 15 6 29 -38 46 -69 38 -69 -6 0
-11 -11 -11 -24 0 -72 -42 -111 -92 -85 l-23 12 20 -24 c11 -13 20 -25 21 -27
2 -4 109 47 127 61 9 8 17 21 17 30 0 20 69 97 86 97 7 0 22 -16 34 -35 18
-29 24 -33 39 -23 15 9 24 7 47 -9 16 -11 36 -23 44 -27 8 -3 40 -25 70 -47
30 -22 86 -60 123 -85 38 -25 70 -51 73 -58 2 -6 22 -23 44 -36 22 -14 40 -29
40 -35 0 -9 17 -25 100 -98 14 -12 34 -42 45 -67 10 -25 29 -55 42 -68 13 -13
23 -27 23 -33 0 -6 5 -7 10 -4 12 8 12 8 1 -32 -6 -21 -6 -35 0 -39 6 -3 2
-12 -8 -20 -16 -12 -16 -13 -1 -14 9 0 24 7 32 16 9 8 21 12 26 9 6 -4 17 -2
25 5 14 12 55 -2 55 -19 0 -14 109 -51 151 -51 28 0 41 -5 49 -20 6 -12 16
-17 26 -13 8 3 25 1 37 -5 12 -6 51 -23 87 -37 36 -15 76 -38 91 -51 30 -29
49 -31 42 -5 -2 10 5 38 16 61 12 24 19 46 16 48 -2 3 -24 -11 -47 -30 l-43
-34 -25 28 c-14 15 -35 28 -47 28 -28 0 -53 45 -53 93 0 33 -18 58 -50 70 -12
4 -11 6 3 6 18 1 21 9 11 35 -3 8 -12 12 -20 9 -20 -7 -19 38 2 63 15 18 15
18 11 -9 -2 -15 0 -30 4 -33 5 -3 9 8 9 24 0 16 8 36 18 43 15 13 16 12 3 -3
-14 -18 -10 -22 22 -19 9 1 17 -4 17 -13 0 -8 5 -18 11 -22 8 -5 10 1 7 20 -4
21 -1 26 16 27 12 1 7 5 -14 9 -33 7 -31 7 18 9 28 0 52 4 52 8 0 4 -10 17
-22 30 -20 22 -21 27 -10 87 7 35 12 88 12 119 0 37 5 61 16 71 8 9 16 34 17
56 1 22 6 40 12 40 5 0 4 4 -3 9 -11 7 -11 9 2 14 9 4 16 1 16 -5 0 -26 32 21
35 50 2 34 25 62 49 62 33 0 14 19 -25 25 -22 4 -48 16 -59 27 -16 17 -23 19
-52 10 -18 -6 -60 -13 -93 -16 -33 -2 -77 -12 -97 -20 -21 -9 -49 -16 -63 -16
-14 0 -25 -4 -25 -10 0 -5 -6 -10 -13 -10 -7 0 -17 -8 -24 -18 -6 -11 -27 -27
-47 -36 -20 -9 -36 -22 -36 -29 0 -7 -13 -27 -29 -46 l-28 -34 -44 21 c-24 12
-72 25 -106 31 -34 5 -72 15 -85 22 -13 7 -33 15 -46 16 -36 6 -78 25 -64 30
6 3 12 12 12 21 0 12 -3 13 -12 4 -7 -7 -23 -12 -36 -12 -14 0 -21 -4 -17 -11
5 -7 -6 -9 -31 -7 -31 2 -40 7 -42 25 -2 17 6 27 35 42 l38 21 -37 -2 c-21 -1
-43 3 -50 10 -7 7 -20 12 -30 12 -20 0 -25 16 -7 22 7 2 2 23 -15 56 -15 29
-24 57 -21 62 3 5 -3 18 -15 30 -11 11 -20 26 -20 33 0 7 -9 18 -20 25 -11 7
-20 19 -20 27 0 7 -9 30 -21 49 -15 26 -20 49 -18 93 3 58 -11 100 -37 116
-10 6 -14 33 -14 97 0 80 -2 90 -18 90 -36 0 -72 24 -66 43 20 62 -62 177 -99
140z m1 -216 c19 -31 11 -44 -36 -53 -39 -8 -44 14 -9 40 12 9 17 14 11 12 -7
-3 -14 0 -17 8 -14 35 29 29 51 -7z m65 -20 c-9 -15 -23 5 -19 26 7 34 7 34
15 7 5 -14 6 -28 4 -33z m65 -312 c12 -19 22 -38 22 -43 0 -5 14 -21 30 -37
27 -26 29 -30 13 -39 -12 -6 -18 -6 -21 2 -6 18 -22 4 -22 -18 0 -11 -10 -25
-22 -31 -13 -7 -27 -18 -31 -25 -5 -9 -25 -14 -50 -13 -23 0 -36 3 -29 6 15 6
16 35 1 50 -14 14 -14 114 0 122 5 4 14 19 20 34 16 41 59 37 89 -8z m-158
-155 c0 -5 -5 -10 -11 -10 -5 0 -7 5 -4 10 3 6 8 10 11 10 2 0 4 -4 4 -10z
m43 -99 c-3 -13 -10 -18 -21 -13 -10 4 -12 7 -4 10 7 2 10 8 6 13 -3 5 1 9 9
9 10 0 13 -7 10 -19z"/>
<path d="M5900 3342 c0 -5 14 -12 30 -14 33 -5 28 6 -7 17 -13 3 -23 2 -23 -3z"/>
<path d="M5245 3313 c-11 -2 -29 -8 -40 -13 -11 -5 -40 -14 -64 -20 -23 -6
-41 -13 -39 -16 8 -7 198 39 198 48 0 8 -20 9 -55 1z"/>
<path d="M2140 3265 c-1 -11 -4 -33 -6 -50 -7 -50 54 -274 98 -365 17 -35 17
-35 14 70 -3 90 -7 113 -30 157 -14 29 -26 61 -26 70 -1 27 -28 120 -30 103
-1 -8 -6 -4 -10 10 -7 22 -8 22 -10 5z"/>
<path d="M8544 3187 c-2 -7 2 -27 11 -43 l15 -29 0 43 c0 40 -15 57 -26 29z"/>
<path d="M7370 2881 c-12 -24 -13 -71 -1 -71 13 0 35 30 36 50 1 10 -3 18 -9
17 -6 -1 -10 4 -8 11 3 18 -6 15 -18 -7z"/>
<path d="M2852 2737 c-6 -7 -12 -40 -14 -72 -3 -60 -3 -60 -36 -63 -18 -2 -30
-7 -27 -12 3 -4 -8 -13 -25 -18 -19 -7 -32 -20 -36 -37 -14 -55 46 -77 179
-66 78 6 86 9 110 36 75 89 86 96 154 102 61 5 103 24 103 47 0 20 -27 15 -88
-15 -53 -26 -58 -26 -96 -13 -22 8 -52 25 -66 37 -14 13 -46 34 -72 47 -27 13
-48 27 -48 32 0 13 -26 10 -38 -5z"/>
<path d="M2338 2661 c-3 -19 4 -47 17 -73 32 -64 59 -108 67 -108 9 0 28 67
28 98 0 27 -25 39 -46 21 -14 -11 -15 -7 -10 34 4 36 2 47 -8 47 -8 0 -21 3
-29 6 -10 4 -16 -4 -19 -25z"/>
<path d="M9360 2617 c0 -7 9 -18 20 -25 18 -11 20 -10 20 13 0 18 -5 25 -20
25 -11 0 -20 -6 -20 -13z"/>
<path d="M9320 2584 c0 -8 -4 -12 -10 -9 -6 4 -10 -11 -9 -37 0 -38 2 -41 11
-20 6 12 19 22 30 22 12 0 18 -8 19 -22 1 -15 4 -10 8 12 4 19 2 43 -4 53 -12
21 -45 23 -45 1z"/>
<path d="M3487 2583 c-4 -3 -7 -11 -7 -17 0 -6 5 -5 12 2 6 6 9 14 7 17 -3 3
-9 2 -12 -2z"/>
<path d="M3688 2499 c-19 -11 -25 -59 -7 -59 5 0 7 -5 3 -12 -5 -8 0 -9 15 -5
18 4 21 2 17 -10 -7 -18 52 -123 69 -123 5 1 21 9 34 20 31 27 32 87 1 112
-16 13 -21 24 -16 43 5 18 1 27 -13 35 -25 13 -81 13 -103 -1z"/>
<path d="M6230 2470 c-10 -6 -12 -12 -5 -19 7 -7 14 -4 23 9 13 21 6 25 -18
10z"/>
<path d="M9380 2346 c0 -18 -5 -26 -18 -26 -30 0 -42 -21 -42 -72 0 -44 -2
-48 -25 -48 -14 0 -29 -8 -35 -20 -11 -20 -5 -25 26 -21 6 1 14 -12 17 -28 7
-32 34 -48 51 -30 8 9 8 10 -1 5 -19 -10 -39 4 -22 15 12 8 12 11 -1 18 -8 6
-11 13 -7 18 5 4 12 1 17 -7 8 -12 13 -13 30 -2 11 6 27 12 35 12 8 0 15 5 15
10 0 6 4 10 9 10 6 0 7 -17 4 -37 -6 -42 -13 -54 -20 -35 -6 16 -23 15 -23 -2
0 -7 -7 -19 -15 -26 -20 -17 -19 -32 4 -56 10 -11 24 -30 30 -42 15 -27 26
-28 48 -2 10 11 25 20 34 20 9 0 24 10 35 21 l19 22 -37 -7 -38 -7 0 36 c0 19
3 35 8 35 4 0 19 10 34 23 15 12 36 29 47 37 16 13 17 19 8 37 -11 19 -13 19
-27 5 -13 -14 -12 -15 3 -9 9 3 17 2 17 -3 0 -5 -19 -10 -42 -12 -35 -2 -42
-6 -40 -20 2 -10 -3 -18 -11 -18 -22 0 -28 12 -15 28 10 11 9 17 -5 27 -15 11
-15 13 6 23 l22 11 -23 0 c-28 1 -19 21 10 21 16 0 19 -5 16 -25 -7 -35 6 -31
42 15 22 28 36 37 48 33 16 -6 16 -6 0 10 -21 21 -34 22 -46 1 -7 -12 -17 -14
-44 -9 -35 7 -36 7 -30 47 5 38 4 40 -17 33 -13 -4 -28 -2 -36 5 -13 10 -15 8
-15 -14z m-20 -76 c0 -16 -4 -30 -10 -30 -11 0 -14 43 -3 53 11 12 13 8 13
-23z"/>
<path d="M4702 2258 c-14 -14 -16 -58 -4 -58 14 0 34 52 24 62 -4 4 -13 3 -20
-4z"/>
<path d="M9237 2237 c-33 -29 -35 -33 -20 -43 15 -9 21 -4 40 33 12 24 21 43
20 43 -1 -1 -19 -15 -40 -33z"/>
<path d="M3484 2236 c-9 -24 4 -48 23 -44 12 2 18 12 18 28 0 29 -32 41 -41
16z"/>
<path d="M2830 2205 c-25 -19 -49 -35 -55 -35 -19 0 -95 -35 -95 -43 0 -5 37
-45 82 -90 73 -74 82 -80 86 -59 2 13 10 26 18 29 7 3 16 20 20 39 3 18 16 44
28 57 28 30 24 92 -8 119 -11 9 -23 17 -26 17 -3 0 -25 -15 -50 -34z"/>
<path d="M4680 2170 c0 -5 5 -10 10 -10 6 0 10 5 10 10 0 6 -4 10 -10 10 -5 0
-10 -4 -10 -10z"/>
<path d="M4500 2125 c-27 -29 -23 -36 27 -44 35 -6 38 -9 37 -39 -2 -37 17
-43 39 -12 11 16 21 19 45 14 l31 -6 -2 46 c-1 50 -7 56 -28 26 -13 -17 -18
-18 -51 -7 -20 6 -39 20 -41 29 -7 25 -29 22 -57 -7z"/>
<path d="M9598 2113 c12 -2 30 -2 40 0 9 3 -1 5 -23 4 -22 0 -30 -2 -17 -4z"/>
<path d="M9558 2075 c-6 -30 -3 -43 8 -33 3 4 4 19 2 35 l-3 28 -7 -30z"/>
<path d="M4691 2074 c0 -11 3 -14 6 -6 3 7 2 16 -1 19 -3 4 -6 -2 -5 -13z"/>
<path d="M9696 2051 c-11 -12 -17 -23 -15 -25 8 -8 41 23 37 34 -2 7 -11 3
-22 -9z"/>
<path d="M3522 1938 c-20 -62 -41 -107 -55 -118 -18 -15 -19 -20 -8 -34 12
-14 11 -16 -7 -16 -26 0 -39 19 -21 31 9 7 -2 9 -33 7 -33 -1 -53 3 -66 15
-28 26 -178 21 -176 -5 1 -10 -2 -18 -7 -18 -5 0 -9 7 -9 15 0 27 -45 46 -101
44 -34 -2 -54 2 -57 9 -2 7 -11 12 -20 12 -8 0 -24 8 -36 18 -20 17 -20 17 -1
-8 39 -54 368 -300 400 -300 22 0 53 31 73 73 12 25 28 47 36 50 9 4 16 13 16
22 0 8 5 15 12 15 6 0 26 15 43 33 17 17 61 60 98 94 75 69 83 88 36 78 -25
-6 -31 -4 -36 14 -3 12 -9 21 -14 21 -5 0 -9 6 -9 14 0 7 -6 18 -13 24 -10 8
-20 -12 -45 -90z"/>
<path d="M9640 2032 c0 -7 -9 -12 -20 -12 -11 0 -20 -4 -20 -8 0 -5 -12 -14
-26 -20 -14 -7 -22 -17 -18 -23 4 -7 -3 -6 -17 2 -22 11 -23 11 -10 -4 14 -18
7 -22 -28 -17 -8 1 -12 -4 -8 -14 4 -10 1 -13 -9 -9 -8 3 -14 -1 -14 -10 0 -8
6 -17 13 -19 19 -7 62 7 60 20 -2 9 22 23 47 27 15 2 50 32 50 42 0 6 10 13
21 15 l21 3 -21 19 c-12 11 -21 14 -21 8z"/>
<path d="M3994 1955 c3 -9 6 -19 6 -21 0 -2 8 -4 18 -4 41 -1 142 -106 142
-149 0 -19 33 -55 42 -46 3 3 24 -2 47 -11 36 -14 41 -20 41 -48 1 -30 29 -95
30 -67 0 8 3 11 6 8 4 -4 1 -14 -6 -22 -11 -13 -10 -21 8 -45 28 -38 29 -112
2 -175 -23 -54 -27 -58 -98 -105 -47 -31 -72 -63 -59 -76 2 -2 30 -14 62 -25
60 -21 122 -19 108 4 -4 7 1 6 10 -2 10 -8 17 -9 17 -3 0 6 -4 14 -10 17 -16
10 -12 25 5 19 10 -4 13 -2 10 8 -7 18 20 43 68 63 28 12 37 12 38 3 0 -7 9
27 20 76 10 49 26 97 34 106 8 9 15 27 15 39 0 16 10 26 36 37 20 8 45 24 57
34 20 19 20 19 51 -3 17 -12 47 -37 66 -55 20 -18 47 -39 60 -45 22 -11 25
-19 22 -56 -3 -36 -1 -42 14 -39 9 1 18 11 20 21 1 10 9 26 17 35 18 22 29 79
17 87 -19 12 -9 50 18 71 15 12 45 27 67 34 69 22 82 46 45 85 -17 19 -18 23
-5 48 13 26 12 29 -46 89 l-60 62 -49 -54 -49 -55 -53 4 c-29 1 -50 0 -46 -5
13 -12 -44 -35 -73 -29 -42 9 -99 65 -103 100 -7 63 -18 95 -35 94 -9 0 -36
-16 -61 -35 -25 -19 -53 -37 -63 -40 -9 -4 -20 -16 -23 -28 -8 -33 -50 -59
-73 -46 -11 5 -29 10 -40 10 -29 0 -71 21 -71 35 0 7 -8 15 -17 18 -27 9 -107
57 -118 71 -5 7 -23 16 -39 20 -24 6 -28 4 -22 -9z"/>
<path d="M3950 1924 c0 -8 5 -12 10 -9 6 4 8 11 5 16 -9 14 -15 11 -15 -7z"/>
<path d="M9610 1885 c-7 -8 -19 -15 -26 -15 -8 0 -14 -7 -14 -16 0 -10 -6 -14
-15 -10 -12 4 -15 -3 -15 -29 0 -19 6 -38 13 -42 6 -4 12 -12 12 -18 1 -23 30
-85 41 -85 27 0 21 -373 -7 -390 -5 -4 -7 -14 -3 -24 4 -9 0 -24 -8 -34 -15
-17 -24 -46 -35 -109 -3 -19 -11 -33 -19 -33 -8 0 -14 -7 -14 -16 0 -20 -41
-94 -52 -94 -4 0 -8 -8 -8 -18 0 -10 -9 -25 -20 -35 -11 -9 -20 -23 -20 -31 0
-7 -7 -19 -16 -27 -8 -7 -25 -31 -36 -53 -11 -23 -24 -43 -28 -46 -4 -3 -30
-32 -58 -65 -27 -33 -71 -82 -96 -108 -25 -26 -46 -55 -46 -63 0 -7 -8 -14
-18 -14 -20 0 -62 -39 -62 -58 0 -6 -13 -18 -30 -27 -16 -9 -30 -19 -30 -24 0
-4 -11 -13 -24 -20 -13 -7 -29 -24 -36 -37 -7 -13 -17 -21 -21 -18 -4 2 -26
-13 -48 -35 -23 -22 -37 -43 -31 -46 5 -3 6 -13 3 -23 -5 -14 -3 -15 8 -5 18
17 29 16 29 -2 0 -9 11 -21 25 -27 28 -13 30 -19 13 -36 -10 -10 -6 -18 15
-39 23 -24 27 -25 27 -9 0 10 -7 24 -16 30 -13 10 -13 16 -3 39 6 14 15 24 19
22 3 -2 6 6 6 18 -1 13 6 23 17 25 10 2 17 -3 17 -13 0 -12 5 -15 23 -9 12 3
23 10 25 15 2 4 10 5 19 2 11 -4 14 -2 9 5 -3 6 2 16 13 22 13 6 22 7 26 0 7
-12 45 25 45 44 0 18 37 13 58 -8 14 -14 48 -98 58 -146 3 -14 11 -32 18 -40
7 -8 19 -36 27 -63 l13 -47 153 0 c170 0 208 8 200 42 -4 12 -1 28 4 35 6 6 7
18 3 25 -5 7 -9 21 -9 30 -2 25 -15 35 -24 19 -7 -11 -10 -11 -16 0 -6 8 5 24
31 46 23 21 31 32 19 28 -18 -6 -18 -5 -2 5 9 6 21 9 26 6 5 -3 11 1 15 9 3 8
0 15 -7 15 -8 0 -6 4 3 10 12 7 8 10 -14 10 -17 0 -40 -9 -53 -22 -13 -12 -25
-20 -27 -17 -9 11 -15 119 -6 119 5 0 10 7 10 15 0 8 9 15 20 15 13 0 20 7 20
20 0 11 15 33 33 49 29 27 30 30 13 37 -10 4 -27 2 -37 -4 -10 -7 -26 -12 -34
-12 -8 0 -15 -8 -15 -17 0 -15 -2 -16 -10 -3 -8 13 -11 12 -24 -5 -8 -11 -18
-17 -22 -12 -4 4 -2 7 4 7 7 0 12 7 12 15 0 18 -21 20 -38 3 -8 -8 -15 -8 -27
2 -14 12 -14 15 5 35 11 12 20 29 20 38 0 11 8 17 22 17 12 0 35 16 55 40 19
22 38 38 43 35 4 -3 20 9 34 26 14 17 26 27 26 22 0 -4 4 -3 8 2 4 6 19 16 34
22 34 15 28 47 -9 50 -16 0 -21 -2 -13 -7 8 -5 9 -9 1 -14 -6 -4 -16 -4 -23 0
-6 4 -17 -1 -25 -11 -9 -13 -16 -16 -23 -9 -14 14 -2 44 16 44 8 0 14 10 14
21 0 18 -5 21 -30 17 -16 -3 -30 -1 -30 3 0 4 -3 14 -6 23 -4 11 -1 16 11 16
28 0 48 27 35 50 -9 16 -8 18 5 14 8 -4 22 -1 30 6 8 6 20 8 26 4 7 -4 9 -3 6
3 -4 5 5 16 18 23 13 7 22 17 20 21 -3 4 5 11 17 15 22 7 22 7 3 15 -19 7 -19
8 3 8 40 2 15 18 -38 25 -28 4 -48 11 -45 16 4 6 0 10 -7 9 -7 0 -31 -22 -53
-48 -30 -36 -45 -46 -62 -43 -13 2 -23 10 -23 16 0 17 35 53 60 61 19 6 25 17
21 39 -1 5 8 19 20 32 17 18 21 31 16 59 -4 23 -2 35 6 35 7 0 34 11 60 24 27
14 54 23 62 20 8 -3 20 4 27 15 7 12 18 21 25 21 7 0 13 9 13 19 0 11 15 31
33 45 26 21 28 24 10 20 -25 -7 -28 -3 -14 24 5 9 14 29 20 45 9 22 17 27 46
27 19 0 35 5 35 10 0 6 -4 10 -10 10 -15 0 -12 40 3 40 6 0 4 5 -5 11 -12 7
-24 6 -37 -1 -26 -14 -28 -13 -34 10 -5 21 -29 28 -24 8 1 -7 -4 -12 -10 -10
-7 1 -13 -7 -13 -18 0 -11 5 -20 10 -20 6 0 10 7 10 15 0 8 5 15 10 15 15 0
12 -26 -6 -41 -13 -10 -17 -10 -24 2 -7 11 -20 4 -60 -36 -49 -48 -50 -49 -50
-22 0 20 -5 27 -20 27 -26 0 -26 20 1 27 16 4 17 8 7 14 -9 6 -2 9 19 9 17 0
35 5 38 11 5 7 13 5 25 -6 10 -9 21 -12 24 -7 3 5 -3 12 -14 15 -11 3 -20 13
-20 22 0 14 3 15 15 5 9 -8 15 -8 15 -2 0 6 8 13 18 15 13 4 12 5 -5 6 -12 0
-24 7 -27 14 -5 10 -7 10 -12 0 -12 -27 -26 -11 -22 26 2 22 1 38 -2 36 -4 -2
-5 19 -2 48 3 42 1 50 -9 40 -7 -7 -21 -13 -31 -13 -11 0 -29 -9 -41 -20 -12
-11 -27 -18 -34 -16 -7 3 -14 2 -17 -2 -3 -5 -21 -6 -41 -4 -32 4 -34 6 -18
18 10 7 26 14 36 14 9 0 17 5 17 12 0 6 3 8 7 4 4 -3 12 8 17 26 10 29 16 33
49 36 29 3 40 9 52 33 15 28 15 29 -10 29 -20 0 -24 -5 -22 -22 1 -14 -4 -23
-15 -26 -13 -2 -18 3 -18 17 0 14 -6 21 -20 21 -13 0 -20 7 -20 20 0 15 -7 20
-25 20 -14 0 -25 -4 -25 -10 0 -18 -18 -11 -25 10 -8 24 -18 25 -35 5z m110
-70 c0 -22 -2 -24 -26 -15 -16 7 -23 7 -19 0 3 -6 -3 -10 -14 -10 -12 0 -21 3
-21 7 0 16 35 43 57 43 18 0 23 -5 23 -25z m69 -804 c10 -7 8 -12 -10 -25 -29
-20 -59 -21 -59 -1 0 10 10 15 33 15 24 0 28 3 17 10 -8 5 -10 10 -5 10 6 0
16 -4 24 -9z m-89 -55 c0 -2 -7 -6 -15 -10 -8 -3 -15 -1 -15 4 0 6 7 10 15 10
8 0 15 -2 15 -4z m-25 -66 c-3 -5 -11 -10 -16 -10 -6 0 -7 5 -4 10 3 6 11 10
16 10 6 0 7 -4 4 -10z m59 -175 c-4 -8 -8 -15 -10 -15 -2 0 -4 7 -4 15 0 8 4
15 10 15 5 0 7 -7 4 -15z m-54 -50 c0 -8 -7 -15 -15 -15 -8 0 -15 -5 -15 -11
0 -5 -5 -7 -11 -3 -6 3 -15 0 -20 -7 -5 -9 -9 -10 -9 -2 0 6 15 20 33 32 39
25 37 25 37 6z m-550 -180 c11 -13 10 -14 -4 -9 -9 3 -16 10 -16 15 0 13 6 11
20 -6z m-30 -15 c0 -5 -4 -10 -10 -10 -5 0 -10 5 -10 10 0 6 5 10 10 10 6 0
10 -4 10 -10z m2 -150 c5 0 6 -4 3 -10 -9 -14 -21 -12 -23 3 0 6 -3 30 -6 52
l-5 40 11 -42 c6 -24 15 -43 20 -43z m82 23 c-17 -17 -31 -16 -38 3 -9 25 2
33 28 21 19 -9 21 -14 10 -24z m406 0 c0 -5 -11 -21 -24 -38 l-24 -30 11 38
c7 20 18 37 24 37 7 0 13 -3 13 -7z m-520 -67 c0 -2 -8 -10 -17 -17 -16 -13
-17 -12 -4 4 13 16 21 21 21 13z"/>
<path d="M6752 1801 c-21 -13 13 -35 61 -40 4 -1 7 -7 7 -15 0 -8 6 -17 13
-19 7 -3 5 -6 -5 -6 -11 -1 -18 -9 -18 -21 0 -19 -24 -26 -68 -21 -23 3 -32
-44 -20 -109 l12 -62 40 6 c48 8 58 21 88 113 25 79 22 76 106 73 23 -1 42 3
42 9 0 5 -25 30 -56 55 -54 44 -58 46 -122 46 -37 0 -73 -4 -80 -9z m41 -246
c8 -18 -11 -31 -25 -17 -11 11 -3 32 12 32 4 0 10 -7 13 -15z"/>
<path d="M9965 1750 c-3 -4 -18 -10 -35 -13 -18 -4 -30 -13 -30 -22 0 -8 -5
-15 -11 -15 -6 0 -17 -7 -25 -15 -13 -13 -12 -14 15 -9 25 5 30 3 34 -17 4
-24 4 -24 6 -1 1 17 7 22 27 22 23 0 25 3 20 24 -5 20 -3 24 12 21 10 -2 25 1
33 7 11 8 10 9 -5 4 -13 -4 -17 -2 -13 7 5 14 -20 20 -28 7z"/>
<path d="M5435 1721 c-3 -5 -31 -7 -63 -5 -56 5 -57 5 -29 -11 15 -9 27 -20
27 -26 0 -6 4 -8 9 -4 5 3 11 -4 13 -16 3 -19 6 -18 41 15 20 21 37 41 37 46
0 13 -27 13 -35 1z"/>
<path d="M9980 1586 c0 -8 -6 -16 -12 -19 -7 -2 -10 -8 -6 -12 8 -9 38 18 38
34 0 6 -4 11 -10 11 -5 0 -10 -6 -10 -14z"/>
<path d="M10120 1540 c0 -11 5 -20 10 -20 6 0 10 9 10 20 0 11 -4 20 -10 20
-5 0 -10 -9 -10 -20z"/>
<path d="M3897 1350 c-16 -22 -16 -25 -1 -28 21 -5 26 2 22 30 l-3 23 -18 -25z"/>
<path d="M6213 1308 c-19 -30 -42 -117 -43 -158 -1 -29 -4 -39 -9 -27 -6 15
-9 13 -24 -17 l-17 -36 43 0 c43 0 286 48 366 72 25 7 46 18 48 24 2 6 -14 29
-36 53 -30 33 -51 45 -93 55 -29 8 -61 17 -70 21 -14 5 -18 2 -18 -12 0 -19
-28 -53 -43 -53 -4 0 -7 11 -7 24 0 34 -26 53 -51 38 -23 -15 -29 -15 -29 -2
0 6 7 10 15 10 8 0 15 5 15 10 0 14 -37 12 -47 -2z m4 -60 c-3 -7 -5 -2 -5 12
0 14 2 19 5 13 2 -7 2 -19 0 -25z"/>
<path d="M7410 1250 c-9 -6 -10 -10 -3 -10 6 0 15 5 18 10 8 12 4 12 -15 0z"/>
<path d="M4765 1230 c-8 -13 4 -32 16 -25 12 8 12 35 0 35 -6 0 -13 -4 -16
-10z"/>
<path d="M9964 1215 c-4 -9 -13 -13 -23 -10 -9 2 -29 -2 -45 -10 -15 -8 -36
-15 -46 -15 -16 0 -46 -47 -36 -57 13 -13 81 11 107 38 15 16 33 29 39 29 5 0
10 5 10 10 0 6 6 10 14 10 8 0 18 5 21 10 3 6 -3 10 -15 10 -11 0 -23 -7 -26
-15z"/>
<path d="M5527 1152 c-26 -37 -56 -78 -68 -92 -25 -33 -16 -60 20 -60 29 0 61
41 61 78 0 11 7 22 14 25 23 9 48 66 42 93 -4 13 -10 24 -14 24 -4 0 -28 -31
-55 -68z"/>
<path d="M9890 1075 c0 -36 -4 -45 -17 -45 -12 0 -14 -3 -6 -11 8 -8 17 -8 32
0 17 9 21 21 21 56 0 33 -4 45 -15 45 -11 0 -15 -12 -15 -45z"/>
<path d="M9975 1090 c-3 -5 3 -10 15 -10 12 0 18 5 15 10 -3 6 -10 10 -15 10
-5 0 -12 -4 -15 -10z"/>
<path d="M9940 1070 c0 -5 5 -10 10 -10 6 0 10 5 10 10 0 6 -4 10 -10 10 -5 0
-10 -4 -10 -10z"/>
<path d="M10105 922 c-4 -10 0 -12 11 -8 8 3 18 6 20 6 2 0 4 4 4 8 0 15 -29
9 -35 -6z"/>
<path d="M3440 900 c20 -13 40 -13 40 0 0 6 -12 10 -27 10 -22 0 -25 -2 -13
-10z"/>
<path d="M3325 890 c-3 -5 1 -10 10 -10 9 0 13 5 10 10 -3 6 -8 10 -10 10 -2
0 -7 -4 -10 -10z"/>
<path d="M9798 863 c5 -21 7 -23 10 -9 2 10 0 22 -6 28 -6 6 -7 0 -4 -19z"/>
<path d="M9865 790 c-8 -13 5 -13 25 0 13 8 13 10 -2 10 -9 0 -20 -4 -23 -10z"/>
<path d="M6217 508 c-15 -5 -25 -14 -21 -19 3 -5 0 -9 -5 -9 -6 0 -11 -4 -11
-10 0 -18 21 -10 52 20 31 32 29 34 -15 18z"/>
<path d="M6076 475 c-17 -17 -36 -20 -36 -5 0 7 -6 7 -19 0 -11 -5 -35 -11
-53 -11 -18 -1 -25 -3 -15 -6 27 -7 20 -20 -10 -16 -30 3 -72 -22 -58 -34 4
-5 10 -3 12 3 2 8 18 10 43 7 26 -4 40 -2 40 6 0 6 10 11 23 11 21 -1 22 -1 3
-15 -18 -14 -18 -15 -2 -15 10 0 20 9 23 20 7 28 31 25 39 -5 3 -14 10 -25 15
-25 5 0 6 7 3 15 -8 19 15 48 32 41 8 -3 11 0 7 10 -6 15 -23 19 -23 5 0 -5
-7 -11 -15 -15 -26 -10 -16 13 13 28 18 10 21 15 10 16 -9 0 -23 -7 -32 -15z"/>
<path d="M6150 479 c0 -5 5 -7 10 -4 6 3 10 8 10 11 0 2 -4 4 -10 4 -5 0 -10
-5 -10 -11z"/>
<path d="M6650 479 c0 -5 -4 -7 -10 -4 -14 9 -12 -9 2 -23 10 -10 6 -18 -17
-38 -26 -22 -27 -24 -5 -12 14 7 28 11 33 10 4 -1 7 5 7 13 0 8 7 15 16 15 8
0 13 4 9 10 -3 5 -12 7 -20 3 -8 -3 -15 0 -15 6 0 6 9 11 21 11 11 0 17 5 14
10 -8 13 -35 13 -35 -1z"/>
<path d="M6290 465 c0 -8 -3 -15 -7 -15 -13 -1 -69 -50 -57 -50 6 0 27 13 45
30 19 16 37 30 42 30 14 0 7 20 -8 20 -8 0 -15 -7 -15 -15z"/>
<path d="M4530 460 c0 -5 5 -10 10 -10 6 0 10 5 10 10 0 6 -4 10 -10 10 -5 0
-10 -4 -10 -10z"/>
<path d="M6450 449 c-11 -20 -11 -20 14 -4 30 20 32 25 11 25 -8 0 -19 -9 -25
-21z"/>
<path d="M6230 450 c0 -5 5 -10 11 -10 5 0 7 5 4 10 -3 6 -8 10 -11 10 -2 0
-4 -4 -4 -10z"/>
<path d="M6200 430 c0 -5 5 -10 10 -10 6 0 10 5 10 10 0 6 -4 10 -10 10 -5 0
-10 -4 -10 -10z"/>
<path d="M6305 430 c3 -5 8 -10 11 -10 2 0 4 5 4 10 0 6 -5 10 -11 10 -5 0 -7
-4 -4 -10z"/>
<path d="M5777 423 c-12 -12 -7 -22 8 -17 8 4 15 10 15 15 0 11 -14 12 -23 2z"/>
<path d="M6523 423 c-15 -5 -17 -23 -4 -23 5 0 11 7 15 15 3 8 4 15 3 14 -1 0
-8 -3 -14 -6z"/>
<path d="M5629 412 c11 -8 9 -11 -8 -17 -11 -3 -31 -4 -43 -1 -13 3 -17 3 -10
0 6 -3 12 -14 12 -24 0 -18 1 -18 31 -2 71 39 75 42 57 42 -9 0 -25 3 -35 6
-14 4 -15 4 -4 -4z"/>
<path d="M5820 410 c0 -5 5 -10 10 -10 6 0 10 5 10 10 0 6 -4 10 -10 10 -5 0
-10 -4 -10 -10z"/>
<path d="M6455 410 c-3 -5 -1 -10 4 -10 6 0 11 5 11 10 0 6 -2 10 -4 10 -3 0
-8 -4 -11 -10z"/>
<path d="M4820 399 c0 -5 5 -7 10 -4 6 3 10 8 10 11 0 2 -4 4 -10 4 -5 0 -10
-5 -10 -11z"/>
<path d="M5043 396 c-4 -8 -17 -16 -28 -19 -19 -4 -19 -5 1 -6 11 0 29 8 39
19 10 11 13 20 7 20 -6 0 -15 -6 -19 -14z"/>
<path d="M6391 401 c-7 -5 -9 -11 -5 -14 5 -3 15 1 22 9 14 16 5 18 -17 5z"/>
<path d="M4970 390 c0 -12 8 -12 35 0 18 8 17 9 -7 9 -16 1 -28 -3 -28 -9z"/>
<path d="M6315 390 c-3 -6 1 -7 9 -4 18 7 21 14 7 14 -6 0 -13 -4 -16 -10z"/>
<path d="M5210 380 c0 -5 5 -10 10 -10 6 0 10 5 10 10 0 6 -4 10 -10 10 -5 0
-10 -4 -10 -10z"/>
<path d="M5280 379 c0 -5 5 -7 10 -4 6 3 10 8 10 11 0 2 -4 4 -10 4 -5 0 -10
-5 -10 -11z"/>
<path d="M5905 380 c-3 -5 -1 -10 4 -10 6 0 11 5 11 10 0 6 -2 10 -4 10 -3 0
-8 -4 -11 -10z"/>
<path d="M6243 376 c-22 -10 -31 -26 -15 -26 10 1 46 29 41 33 -2 2 -14 -2
-26 -7z"/>
<path d="M6770 379 c0 -5 5 -7 10 -4 6 3 10 8 10 11 0 2 -4 4 -10 4 -5 0 -10
-5 -10 -11z"/>
<path d="M7035 380 c3 -5 10 -10 16 -10 5 0 9 5 9 10 0 6 -7 10 -16 10 -8 0
-12 -4 -9 -10z"/>
<path d="M4825 370 c17 -7 17 -9 3 -9 -10 -1 -18 -6 -18 -11 0 -7 6 -7 20 0
27 14 25 30 -2 29 -22 0 -22 -1 -3 -9z"/>
<path d="M5138 373 c7 -3 16 -2 19 1 4 3 -2 6 -13 5 -11 0 -14 -3 -6 -6z"/>
<path d="M5183 363 c-15 -5 -17 -23 -4 -23 5 0 11 7 15 15 3 8 4 15 3 14 -1 0
-8 -3 -14 -6z"/>
<path d="M5454 348 l-19 -23 23 19 c12 11 22 21 22 23 0 8 -8 2 -26 -19z"/>
<path d="M6400 359 c0 -5 5 -7 10 -4 6 3 10 8 10 11 0 2 -4 4 -10 4 -5 0 -10
-5 -10 -11z"/>
<path d="M6552 361 c-11 -7 -11 -9 2 -14 10 -4 16 -1 16 8 0 17 -1 17 -18 6z"/>
<path d="M6628 363 c7 -3 16 -2 19 1 4 3 -2 6 -13 5 -11 0 -14 -3 -6 -6z"/>
<path d="M6675 359 c-4 -6 -5 -12 -2 -15 2 -3 7 2 10 11 7 17 1 20 -8 4z"/>
<path d="M7002 345 c-6 -14 -18 -25 -27 -25 -19 0 -20 -19 0 -26 8 -4 12 -10
9 -15 -8 -14 -24 -10 -24 6 0 8 -4 15 -10 15 -13 0 -13 -13 1 -27 8 -8 6 -15
-10 -25 -11 -7 -21 -18 -21 -25 0 -18 17 -16 24 2 6 17 36 21 36 4 0 -5 4 -8
9 -5 16 11 19 -18 3 -36 -21 -25 1 -23 23 2 24 26 48 27 40 1 -3 -11 -1 -22 4
-26 6 -3 8 0 5 8 -9 24 12 28 36 7 32 -28 70 -27 69 3 0 12 -3 16 -6 10 -7
-18 -30 -16 -64 4 -22 13 -27 22 -23 40 4 15 2 23 -6 23 -7 0 -10 7 -6 16 10
25 -19 47 -45 34 -29 -16 -35 -5 -10 21 22 24 27 39 13 39 -5 0 -14 -11 -20
-25z m48 -56 c0 -5 -4 -9 -10 -9 -5 0 -10 7 -10 16 0 8 5 12 10 9 6 -3 10 -10
10 -16z m-30 -15 c0 -3 -6 -12 -14 -20 -11 -10 -17 -11 -22 -3 -3 6 0 15 7 20
16 10 29 12 29 3z m27 -41 c-9 -9 -20 -13 -24 -9 -4 4 -1 11 7 16 25 16 35 11
17 -7z"/>
<path d="M5106 351 c-4 -7 -5 -15 -2 -18 9 -9 19 4 14 18 -4 11 -6 11 -12 0z"/>
<path d="M5928 353 c6 -2 18 -2 25 0 6 3 1 5 -13 5 -14 0 -19 -2 -12 -5z"/>
<path d="M6271 344 c0 -11 3 -14 6 -6 3 7 2 16 -1 19 -3 4 -6 -2 -5 -13z"/>
<path d="M6890 345 c0 -8 5 -15 10 -15 6 0 10 7 10 15 0 8 -4 15 -10 15 -5 0
-10 -7 -10 -15z"/>
<path d="M9680 345 c0 -16 16 -20 24 -6 3 5 -1 11 -9 15 -9 3 -15 0 -15 -9z"/>
<path d="M4851 334 c0 -11 3 -14 6 -6 3 7 2 16 -1 19 -3 4 -6 -2 -5 -13z"/>
<path d="M6600 340 c0 -5 5 -10 10 -10 6 0 10 5 10 10 0 6 -4 10 -10 10 -5 0
-10 -4 -10 -10z"/>
<path d="M5145 331 c-3 -5 -1 -12 5 -16 5 -3 10 1 10 9 0 18 -6 21 -15 7z"/>
<path d="M5330 328 c0 -23 19 -33 33 -18 9 10 9 11 0 6 -6 -3 -16 2 -22 11 -9
16 -10 16 -11 1z"/>
<path d="M5780 325 c-8 -9 -8 -15 -2 -15 12 0 26 19 19 26 -2 2 -10 -2 -17
-11z"/>
<path d="M5919 327 c5 -5 19 -7 32 -5 20 3 19 5 -9 9 -20 3 -29 2 -23 -4z"/>
<path d="M6520 330 c0 -5 4 -10 9 -10 6 0 13 5 16 10 3 6 -1 10 -9 10 -9 0
-16 -4 -16 -10z"/>
<path d="M6930 330 c0 -5 4 -10 9 -10 6 0 13 5 16 10 3 6 -1 10 -9 10 -9 0
-16 -4 -16 -10z"/>
<path d="M6230 319 c0 -5 5 -7 10 -4 6 3 10 8 10 11 0 2 -4 4 -10 4 -5 0 -10
-5 -10 -11z"/>
<path d="M6805 319 c-11 -16 -1 -19 13 -3 7 8 8 14 3 14 -5 0 -13 -5 -16 -11z"/>
<path d="M5290 310 c-12 -8 -10 -10 8 -10 13 0 20 4 17 10 -7 12 -6 12 -25 0z"/>
<path d="M5641 304 c0 -11 3 -14 6 -6 3 7 2 16 -1 19 -3 4 -6 -2 -5 -13z"/>
<path d="M6610 309 c0 -5 5 -7 10 -4 6 3 10 8 10 11 0 2 -4 4 -10 4 -5 0 -10
-5 -10 -11z"/>
<path d="M5955 291 c-3 -5 -1 -12 5 -16 5 -3 10 1 10 9 0 18 -6 21 -15 7z"/>
<path d="M5790 279 c0 -5 5 -7 10 -4 6 3 10 8 10 11 0 2 -4 4 -10 4 -5 0 -10
-5 -10 -11z"/>
<path d="M6878 284 c-8 -7 3 -44 13 -44 16 0 19 18 3 24 -8 3 -12 10 -9 16 7
11 2 14 -7 4z"/>
<path d="M5240 270 c0 -5 7 -7 15 -4 8 4 15 8 15 10 0 2 -7 4 -15 4 -8 0 -15
-4 -15 -10z"/>
<path d="M6280 260 c0 -5 5 -10 11 -10 5 0 7 5 4 10 -3 6 -8 10 -11 10 -2 0
-4 -4 -4 -10z"/>
<path d="M6660 250 c0 -5 5 -10 11 -10 5 0 7 5 4 10 -3 6 -8 10 -11 10 -2 0
-4 -4 -4 -10z"/>
<path d="M6824 245 c-18 -14 -18 -14 0 -15 12 0 16 -5 13 -14 -4 -10 -1 -13 9
-9 17 6 19 23 3 23 -6 0 -9 7 -5 15 7 19 5 19 -20 0z"/>
<path d="M5557 235 c-4 -8 -3 -16 1 -19 4 -3 9 4 9 15 2 23 -3 25 -10 4z"/>
<path d="M9797 235 c-4 -8 -2 -17 3 -20 6 -4 10 3 10 14 0 25 -6 27 -13 6z"/>
<path d="M5700 229 c0 -5 5 -7 10 -4 6 3 10 8 10 11 0 2 -4 4 -10 4 -5 0 -10
-5 -10 -11z"/>
<path d="M6635 230 c3 -5 8 -10 11 -10 2 0 4 5 4 10 0 6 -5 10 -11 10 -5 0 -7
-4 -4 -10z"/>
<path d="M6670 210 c0 -5 5 -10 11 -10 5 0 7 5 4 10 -3 6 -8 10 -11 10 -2 0
-4 -4 -4 -10z"/>
<path d="M8713 197 c-15 -12 -40 -28 -55 -35 -27 -11 -39 -42 -18 -42 6 0 22
-7 35 -16 20 -13 23 -20 14 -35 -5 -10 -19 -19 -29 -19 -11 0 -20 -5 -20 -11
0 -7 10 -9 25 -7 14 3 25 1 25 -3 0 -5 5 -9 11 -9 7 0 9 11 6 30 -5 22 -3 30
8 30 8 0 15 -9 15 -20 0 -34 20 -22 21 13 1 29 2 28 10 -12 10 -50 22 -67 39
-56 9 6 9 10 -1 16 -11 8 -10 12 5 24 11 8 16 15 10 15 -5 0 -2 5 6 10 13 8
12 10 -4 10 -14 0 -17 6 -14 25 3 13 1 22 -3 19 -5 -3 -9 10 -9 30 0 70 -25
85 -77 43z m-13 -57 c0 -5 -4 -10 -10 -10 -5 0 -10 5 -10 10 0 6 5 10 10 10 6
0 10 -4 10 -10z"/>
<path d="M5968 193 c7 -3 16 -2 19 1 4 3 -2 6 -13 5 -11 0 -14 -3 -6 -6z"/>
<path d="M6911 184 c7 -8 2 -14 -15 -18 -18 -4 -24 -11 -19 -23 6 -15 7 -15
13 1 3 10 9 17 13 17 10 -1 47 23 47 30 0 4 -11 6 -24 5 -17 -1 -21 -4 -15
-12z"/>
<path d="M7190 181 c0 -12 5 -21 10 -21 6 0 10 6 10 14 0 8 -4 18 -10 21 -5 3
-10 -3 -10 -14z"/>
<path d="M9010 193 c0 -6 5 -15 10 -18 6 -4 7 -12 4 -18 -5 -9 -4 -9 6 0 7 6
20 9 29 6 9 -4 13 -3 9 1 -3 4 -14 9 -23 10 -9 1 -21 9 -26 17 -5 9 -9 10 -9
2z"/>
<path d="M6300 180 c0 -5 5 -10 10 -10 6 0 10 5 10 10 0 6 -4 10 -10 10 -5 0
-10 -4 -10 -10z"/>
<path d="M6865 180 c-3 -5 -1 -10 4 -10 6 0 11 5 11 10 0 6 -2 10 -4 10 -3 0
-8 -4 -11 -10z"/>
<path d="M7769 156 c-12 -25 1 -88 25 -119 16 -21 104 -38 92 -19 -4 7 -14 12
-22 12 -8 0 -14 5 -14 11 0 6 7 9 15 5 10 -4 15 1 15 14 0 11 5 20 12 20 9 0
9 3 -1 13 -10 10 -16 8 -29 -9 -10 -11 -29 -23 -42 -27 -21 -5 -19 0 18 33 43
40 59 50 46 29 -4 -8 1 -9 17 -4 45 14 44 25 -3 25 -26 0 -50 5 -54 11 -3 6
-15 9 -25 6 -11 -3 -17 -2 -14 3 3 4 -2 11 -10 14 -10 4 -19 -3 -26 -18z m76
-26 c-3 -5 -10 -10 -16 -10 -5 0 -9 5 -9 10 0 6 7 10 16 10 8 0 12 -4 9 -10z"/>
<path d="M9156 165 c-3 -8 -1 -15 4 -15 6 0 10 7 10 15 0 8 -2 15 -4 15 -2 0
-6 -7 -10 -15z"/>
<path d="M5970 160 c0 -5 7 -10 15 -10 8 0 15 5 15 10 0 6 -7 10 -15 10 -8 0
-15 -4 -15 -10z"/>
<path d="M7031 149 c-1 -23 2 -26 24 -21 29 5 34 22 6 22 -11 0 -22 6 -24 13
-3 6 -6 0 -6 -14z"/>
<path d="M6938 153 c-18 -4 -34 -33 -18 -33 6 0 10 -9 10 -20 0 -11 4 -20 10
-20 5 0 7 -7 4 -15 -7 -19 6 -19 30 -2 18 13 18 15 0 53 -13 28 -24 39 -36 37z
m22 -23 c0 -5 -7 -10 -15 -10 -8 0 -15 5 -15 10 0 6 7 10 15 10 8 0 15 -4 15
-10z"/>
<path d="M8591 146 c-9 -10 -8 -15 4 -20 10 -4 15 1 15 14 0 24 -4 25 -19 6z"/>
<path d="M6750 135 c-7 -9 -8 -15 -2 -15 5 0 12 7 16 15 3 8 4 15 2 15 -2 0
-9 -7 -16 -15z"/>
<path d="M7160 140 c0 -5 5 -10 10 -10 6 0 10 5 10 10 0 6 -4 10 -10 10 -5 0
-10 -4 -10 -10z"/>
<path d="M9090 140 c0 -5 5 -10 11 -10 5 0 7 5 4 10 -3 6 -8 10 -11 10 -2 0
-4 -4 -4 -10z"/>
<path d="M6990 130 c0 -5 5 -10 11 -10 5 0 7 5 4 10 -3 6 -8 10 -11 10 -2 0
-4 -4 -4 -10z"/>
<path d="M5300 120 c-13 -8 -12 -10 3 -10 9 0 17 5 17 10 0 12 -1 12 -20 0z"/>
<path d="M7215 120 c3 -5 11 -10 16 -10 6 0 7 5 4 10 -3 6 -11 10 -16 10 -6 0
-7 -4 -4 -10z"/>
<path d="M7946 121 c-4 -5 -2 -20 3 -32 8 -22 8 -22 13 9 4 30 -4 43 -16 23z"/>
<path d="M6760 110 c-13 -9 -13 -10 0 -10 8 0 22 5 30 10 13 9 13 10 0 10 -8
0 -22 -5 -30 -10z"/>
<path d="M7051 104 c-7 -8 -10 -18 -6 -22 4 -4 10 -1 12 6 5 14 33 16 33 2 0
-5 6 -10 14 -10 8 0 17 -6 19 -12 3 -7 6 -3 6 10 1 24 16 30 24 10 3 -7 6 -8
6 -3 0 6 -4 17 -9 25 -8 13 -11 12 -23 -4 -12 -17 -15 -17 -29 -2 -20 20 -29
20 -47 0z"/>
<path d="M7250 112 c0 -6 6 -13 13 -15 8 -4 4 -12 -13 -26 -28 -23 -16 -29 13
-6 20 15 20 46 0 53 -7 2 -13 -1 -13 -6z"/>
<path d="M8000 110 c0 -5 5 -10 11 -10 5 0 7 5 4 10 -3 6 -8 10 -11 10 -2 0
-4 -4 -4 -10z"/>
<path d="M8529 103 c-1 -10 -3 -28 -4 -41 -2 -15 3 -22 16 -22 10 0 20 -8 22
-17 2 -10 2 -4 0 14 -2 17 0 33 4 35 4 3 2 3 -4 2 -8 -2 -13 7 -13 21 0 28
-19 35 -21 8z"/>
<path d="M6810 100 c0 -5 4 -10 9 -10 6 0 13 5 16 10 3 6 -1 10 -9 10 -9 0
-16 -4 -16 -10z"/>
<path d="M6995 100 c-3 -5 -2 -10 4 -10 5 0 13 5 16 10 3 6 2 10 -4 10 -5 0
-13 -4 -16 -10z"/>
<path d="M7170 100 c0 -5 5 -10 10 -10 6 0 10 5 10 10 0 6 -4 10 -10 10 -5 0
-10 -4 -10 -10z"/>
<path d="M8095 91 c-3 -5 -1 -13 5 -16 6 -4 8 -15 5 -26 -5 -16 -1 -19 24 -19
32 0 38 13 21 40 -5 8 -13 11 -17 6 -4 -5 -2 -11 5 -13 14 -5 17 -23 3 -23 -5
0 -14 14 -20 30 -11 32 -16 36 -26 21z"/>
<path d="M8200 79 c0 -5 5 -7 10 -4 6 3 10 8 10 11 0 2 -4 4 -10 4 -5 0 -10
-5 -10 -11z"/>
<path d="M8627 79 c-9 -5 -21 -8 -26 -4 -11 6 -18 -22 -13 -52 3 -15 11 -23
24 -23 16 0 19 5 13 29 -5 23 -2 32 17 45 25 18 14 22 -15 5z"/>
<path d="M5340 70 c-9 -6 -10 -10 -3 -10 6 0 15 5 18 10 8 12 4 12 -15 0z"/>
<path d="M8216 62 c-14 -16 -15 -24 -6 -41 13 -25 25 -28 16 -5 -4 9 -1 23 5
30 19 23 5 37 -15 16z"/>
<path d="M8446 65 c8 -19 14 -19 14 0 0 8 -4 15 -10 15 -5 0 -7 -7 -4 -15z"/>
<path d="M7530 60 c0 -5 4 -10 9 -10 6 0 13 5 16 10 3 6 -1 10 -9 10 -9 0 -16
-4 -16 -10z"/>
<path d="M8940 68 c0 -26 25 -68 41 -68 22 0 24 9 6 30 -15 18 -47 44 -47 38z"/>
<path d="M7890 50 c0 -5 5 -10 10 -10 6 0 10 5 10 10 0 6 -4 10 -10 10 -5 0
-10 -4 -10 -10z"/>
<path d="M7970 46 c0 -9 -6 -16 -12 -16 -8 0 -5 -7 6 -15 25 -19 37 -19 30 0
-4 8 -1 15 5 15 6 0 11 5 11 12 0 6 -3 8 -7 5 -3 -4 -12 -2 -20 4 -10 9 -13 8
-13 -5z"/>
<path d="M8470 44 c0 -8 5 -12 10 -9 6 4 8 11 5 16 -9 14 -15 11 -15 -7z"/>
<path d="M7275 41 c-3 -5 0 -13 6 -17 7 -4 9 -3 5 4 -3 5 0 13 6 15 9 4 10 6
1 6 -6 1 -14 -3 -18 -8z"/>
<path d="M8740 15 c-10 -12 -10 -15 4 -15 9 0 16 7 16 15 0 8 -2 15 -4 15 -2
0 -9 -7 -16 -15z"/>
<path d="M7520 10 c0 -5 5 -10 11 -10 5 0 7 5 4 10 -3 6 -8 10 -11 10 -2 0 -4
-4 -4 -10z"/>
</g>
</svg>
