<?xml version="1.0" standalone="no"?>
<!DOCTYPE svg PUBLIC "-//W3C//DTD SVG 20010904//EN"
 "http://www.w3.org/TR/2001/REC-SVG-20010904/DTD/svg10.dtd">
<svg version="1.0" xmlns="http://www.w3.org/2000/svg"
 width="600.000000pt" height="495.000000pt" viewBox="0 0 600.000000 495.000000"
 preserveAspectRatio="xMidYMid meet">

<g transform="translate(0.000000,495.000000) scale(0.100000,-0.100000)"
fill="#000000" stroke="none">
<path d="M3231 4843 c-1 -25 -16 -37 -32 -28 -20 13 -373 17 -469 6 -196 -24
-458 -87 -567 -137 -17 -7 -34 -14 -37 -14 -17 0 -188 -86 -279 -140 -322
-192 -549 -429 -681 -711 -62 -134 -104 -280 -141 -494 -12 -67 -6 -372 11
-515 8 -74 29 -225 46 -335 17 -110 33 -218 35 -240 2 -22 13 -114 23 -205 40
-340 51 -471 57 -703 8 -328 0 -362 -121 -485 l-71 -73 24 -18 c14 -11 30 -17
36 -15 7 3 18 -2 25 -11 15 -18 37 -20 42 -3 2 6 10 8 16 4 9 -5 9 -12 1 -28
-10 -18 -9 -20 5 -15 9 4 16 2 16 -3 0 -6 -7 -10 -15 -10 -8 0 -15 -4 -15 -10
0 -5 16 -10 35 -10 20 0 61 -13 93 -29 93 -46 304 -129 347 -136 50 -7 117
-26 130 -36 6 -4 51 -19 100 -32 50 -14 149 -41 220 -61 72 -20 162 -41 200
-47 112 -16 305 -49 370 -64 60 -13 120 -10 131 6 3 5 0 9 -6 9 -6 0 -8 5 -4
11 4 8 13 1 22 -17 9 -17 17 -24 20 -16 2 7 -1 19 -7 26 -8 9 -7 13 4 13 9 0
15 -10 15 -23 0 -25 14 -32 76 -39 116 -14 158 -16 147 -8 -7 5 -10 18 -7 30
5 18 10 20 30 13 19 -7 24 -6 24 5 0 8 -9 15 -20 15 -16 0 -19 6 -18 35 1 20
5 38 9 41 5 3 -1 14 -13 26 -16 16 -22 18 -29 7 -6 -11 -9 -9 -9 7 0 12 -7 27
-15 34 -8 7 -12 17 -8 23 4 6 10 1 14 -11 8 -21 29 -31 29 -14 0 5 7 9 15 9
20 0 50 -66 36 -80 -13 -13 -15 -41 -2 -33 5 3 11 -1 15 -9 8 -22 31 -18 33 5
1 11 -4 20 -13 20 -9 0 -14 11 -14 34 0 19 -4 38 -10 41 -5 3 -10 11 -10 17 0
6 7 5 17 -3 13 -11 17 -11 20 -1 3 6 10 9 16 6 7 -4 3 2 -8 13 -12 11 -27 23
-35 26 -10 3 -7 6 8 6 12 1 22 7 22 16 0 14 -5 17 -40 19 -24 2 -47 80 -33
116 9 25 9 31 -4 39 -11 6 -12 10 -4 15 6 4 11 12 11 18 0 6 -9 3 -20 -7 -19
-17 -20 -17 -26 1 -4 11 -13 26 -21 36 -10 11 -11 18 -4 23 6 3 11 0 11 -8 0
-26 27 -27 56 -2 26 22 27 27 18 62 -5 21 -15 37 -22 36 -7 -2 -12 2 -12 8 0
8 -5 8 -15 -1 -21 -17 -19 -40 6 -66 12 -12 18 -27 14 -33 -11 -19 -22 -12
-35 22 -6 17 -16 40 -22 51 -6 12 -6 16 1 12 11 -7 7 66 -5 86 -5 8 -2 9 9 5
10 -3 17 -2 17 3 0 6 -6 10 -14 10 -8 0 -18 4 -21 10 -4 6 1 7 12 3 16 -6 16
-5 4 10 -7 9 -9 17 -3 17 5 0 8 9 5 20 -4 15 0 20 13 20 15 0 16 2 5 9 -9 6
-10 14 -5 22 5 8 9 23 9 33 0 11 6 21 13 23 7 3 10 -1 6 -10 -3 -8 2 -17 10
-20 20 -8 21 12 1 49 -8 16 -15 23 -15 16 0 -7 -7 -20 -15 -28 -13 -14 -15
-14 -15 0 0 9 5 16 11 16 5 0 2 13 -7 29 -10 17 -21 28 -25 25 -8 -5 -29 57
-23 65 2 2 9 -1 16 -6 21 -16 48 -23 48 -13 0 6 -6 10 -14 10 -24 0 -29 20
-10 35 18 14 18 14 -1 16 -11 1 -23 1 -27 0 -5 0 -8 10 -8 23 0 16 -5 23 -17
22 -13 -1 -18 6 -18 24 0 14 -4 31 -8 38 -5 7 -4 12 2 12 6 0 11 -5 11 -12 0
-19 14 1 15 22 1 12 -4 18 -14 17 -9 -1 -16 2 -16 8 0 5 9 8 20 6 17 -3 17 -1
5 14 -9 10 -22 14 -37 10 -26 -6 -31 9 -9 30 12 12 18 12 39 -5 32 -25 37 -25
37 1 0 16 -4 19 -20 14 -15 -5 -22 -1 -29 17 -5 13 -5 28 0 34 5 6 7 19 3 28
-3 9 -1 16 5 16 6 0 11 -4 11 -10 0 -5 5 -10 11 -10 5 0 7 5 4 10 -3 6 3 10
14 10 12 0 21 4 21 8 0 4 -19 8 -42 7 -51 0 -74 16 -59 42 9 16 10 16 11 -5 0
-13 4 -20 10 -17 6 3 10 15 10 26 0 16 4 19 21 14 15 -5 20 -3 17 6 -3 8 -16
15 -31 17 -20 2 -24 7 -20 20 6 15 5 15 -9 2 -8 -9 -18 -26 -22 -37 -8 -25
-36 -20 -36 6 0 14 2 14 10 1 5 -8 12 -11 16 -7 4 4 0 15 -8 24 -21 25 -29 73
-12 73 8 0 14 5 14 10 0 6 5 10 10 10 6 0 10 -7 10 -16 0 -11 6 -14 23 -9 22
7 22 7 2 -10 -11 -9 -14 -14 -7 -10 7 3 21 3 33 0 15 -5 18 -12 13 -27 -5 -18
-4 -19 9 -7 14 12 13 17 -6 38 -21 23 -21 24 -2 19 11 -3 29 -9 40 -13 17 -6
17 -5 -2 9 -13 10 -23 24 -23 32 0 8 -7 14 -15 14 -8 0 -15 9 -15 20 0 11 -7
20 -15 20 -9 0 -12 6 -8 18 5 14 3 15 -7 5 -7 -7 -14 -24 -16 -39 -4 -34 -13
-42 -24 -24 -8 12 -10 10 -10 -7 0 -14 -6 -23 -15 -23 -8 0 -15 5 -15 11 0 5
-5 7 -12 3 -8 -5 -9 -2 -5 10 4 10 7 25 8 34 1 10 4 7 9 -8 8 -25 8 -25 9 -2
1 13 -6 37 -15 55 l-17 32 28 -28 c33 -32 45 -34 45 -7 0 13 -5 18 -15 13 -9
-3 -21 2 -29 12 -8 11 -26 17 -51 17 -30 0 -35 2 -22 10 10 5 15 13 12 19 -8
12 28 12 41 -1 7 -7 18 -3 33 11 13 12 30 19 42 16 10 -3 22 0 26 5 3 6 2 8
-4 5 -6 -4 -15 5 -22 19 -10 23 -10 25 10 19 18 -6 19 -5 10 13 -16 30 -3 55
25 49 31 -6 31 1 -1 13 -14 5 -25 15 -25 22 0 9 3 8 10 -2 10 -16 14 -8 11 23
-2 10 5 17 16 17 10 0 14 -3 8 -8 -7 -5 -5 -19 6 -42 l17 -35 -2 60 c-1 33 -5
66 -10 73 -4 6 -2 12 3 12 16 0 13 19 -6 38 -16 16 -16 16 -10 0 5 -14 1 -18
-14 -18 -14 0 -19 5 -16 14 9 22 -5 28 -24 10 -11 -10 -19 -12 -24 -5 -3 6 -1
11 4 11 6 0 11 7 11 16 0 9 -5 12 -12 8 -7 -4 -8 -3 -4 5 4 6 16 9 27 6 23 -8
24 -2 3 19 -20 21 -34 20 -34 -1 0 -15 -2 -14 -19 3 -16 17 -16 20 -2 26 14 6
14 7 -1 7 -10 1 -18 5 -18 11 0 5 8 14 18 19 22 13 7 14 -18 1 -16 -9 -18 -6
-17 28 1 36 18 67 31 55 3 -4 6 8 6 27 0 26 -3 30 -13 21 -8 -6 -17 -8 -20 -4
-4 3 -9 -2 -13 -11 -3 -9 -10 -13 -15 -10 -15 9 -10 21 11 27 11 3 20 10 20
16 0 6 -9 11 -20 11 -12 0 -20 7 -20 18 0 13 2 14 9 3 5 -8 11 -9 15 -3 3 5
-2 13 -11 17 -10 3 -19 2 -21 -4 -2 -5 -10 -7 -18 -4 -10 3 -16 -4 -20 -26 -4
-17 -10 -28 -15 -25 -5 3 -6 11 -2 17 4 8 1 7 -9 -1 -11 -9 -18 -10 -23 -2 -3
6 -10 8 -15 5 -15 -9 -32 23 -21 42 9 17 10 17 16 1 8 -19 35 -25 35 -8 0 6
-4 10 -10 10 -5 0 -10 6 -10 14 0 8 -9 18 -20 21 -21 7 -28 25 -10 25 6 0 24
-6 39 -14 23 -13 27 -20 24 -48 -3 -31 -3 -32 9 -10 6 13 17 21 24 18 7 -3 16
4 19 15 4 10 13 19 21 19 8 0 14 9 14 20 0 25 5 25 33 0 14 -14 23 -17 26 -9
2 6 -2 15 -9 19 -9 6 -9 9 1 13 14 6 -13 11 -39 8 -9 -2 -11 6 -6 23 4 16 2
26 -5 26 -6 0 -11 7 -11 15 0 20 22 14 37 -10 16 -26 16 -38 1 -29 -10 5 -10
4 -1 -6 8 -9 16 -9 30 -1 10 6 12 11 6 11 -7 0 -13 9 -13 20 0 11 -5 20 -11
20 -6 0 -9 6 -6 13 2 6 13 10 23 9 10 -2 16 -1 13 2 -4 4 -17 9 -29 11 -30 6
-37 14 -22 24 8 4 10 15 6 26 -7 16 -8 16 -16 -5 -7 -19 -11 -21 -21 -10 -9
10 -9 13 1 17 15 6 16 30 0 39 -8 5 -9 2 -5 -9 5 -13 1 -16 -16 -13 -16 2 -23
11 -25 34 -2 21 1 32 10 32 8 1 6 6 -5 15 -11 7 -25 11 -32 9 -18 -7 -28 54
-11 71 10 10 16 11 25 2 6 -6 20 -12 31 -14 19 -3 19 -2 3 17 -10 11 -23 20
-30 20 -9 0 -11 9 -6 30 3 20 1 30 -6 30 -7 0 -9 5 -6 10 3 6 -1 13 -9 16 -9
3 -16 12 -16 20 0 8 -6 14 -12 14 -9 0 -10 3 -2 8 6 4 14 26 17 50 5 40 4 43
-16 40 -12 -2 -22 2 -22 7 0 6 -4 16 -8 23 -5 6 -5 16 -2 22 3 5 3 27 -1 47
-6 31 -8 34 -15 18 -11 -29 -11 -57 1 -50 14 9 13 -8 -2 -23 -9 -9 -9 -12 0
-12 7 0 12 -7 12 -15 0 -30 -27 -15 -28 16 0 17 -6 37 -12 45 -10 11 -9 15 4
20 9 3 16 11 16 16 0 6 -7 7 -16 4 -8 -3 -12 -2 -9 3 6 11 -15 61 -26 61 -4 0
-10 -6 -12 -12 -3 -7 -6 -1 -6 15 -1 15 -5 27 -10 27 -5 0 -12 8 -14 18 -4 13
-5 12 -6 -5 -1 -28 -16 -37 -33 -19 -11 11 -16 10 -36 -11 -19 -21 -23 -22
-28 -8 -4 9 -2 21 5 28 6 6 11 7 11 2 0 -6 4 -4 8 3 5 7 18 14 30 17 12 2 27
7 32 10 6 4 16 3 23 -2 24 -18 72 0 74 27 2 19 -2 21 -35 24 -7 1 -17 7 -21
15 -7 10 -12 8 -25 -10 -9 -13 -16 -18 -16 -11 0 6 -9 12 -20 12 -11 0 -20 -4
-20 -10 0 -5 -4 -10 -10 -10 -5 0 -10 9 -10 21 0 13 4 18 12 13 6 -4 8 -3 5 4
-4 5 -16 8 -27 5 -17 -5 -20 0 -20 26 0 32 -16 42 -26 16 -4 -8 -10 -15 -15
-15 -22 0 12 38 38 43 27 5 47 -9 37 -25 -3 -4 0 -8 6 -8 6 0 13 8 17 18 3 9
13 25 21 35 15 17 16 17 29 -5 7 -13 12 -17 13 -10 0 8 5 10 13 6 6 -4 2 3
-10 15 -29 27 -31 46 -4 32 16 -9 18 -8 14 8 -3 13 -11 17 -24 14 -10 -3 -19
0 -19 6 0 15 47 14 53 -1 2 -7 8 -10 12 -6 4 4 3 14 -4 21 -9 11 -8 17 4 27
13 10 15 9 15 -9 0 -11 5 -21 10 -21 6 0 10 5 10 10 0 6 11 22 25 35 13 14 19
25 13 25 -7 0 -3 6 7 14 10 7 26 11 35 9 10 -3 20 2 23 11 4 9 2 16 -3 16 -6
0 -10 7 -10 15 0 8 6 15 13 15 6 0 19 5 27 10 13 9 13 11 0 20 -13 8 -12 10 4
10 15 0 17 -5 13 -29 -7 -35 5 -42 52 -26 26 9 30 13 16 18 -9 4 -25 7 -36 7
-10 0 -19 5 -19 10 0 6 7 10 15 10 36 0 -5 93 -42 97 -18 2 -23 -2 -23 -22 0
-17 -6 -25 -17 -25 -9 0 -25 -7 -35 -17 -17 -15 -18 -15 -18 0 0 10 6 16 12
14 7 -1 14 9 16 22 2 13 12 26 23 28 10 3 19 11 19 17 0 20 70 7 71 -13 1 -9
2 -23 3 -31 0 -8 9 -16 20 -18 12 -3 16 0 11 8 -5 8 0 7 13 -1 25 -16 30 -13
35 26 6 47 33 39 29 -9 -4 -37 -3 -38 22 -32 21 5 26 3 26 -11 0 -10 -7 -27
-15 -37 -17 -22 -20 -40 -6 -32 5 4 11 1 13 -5 3 -8 9 -6 20 5 9 9 24 16 32
16 9 0 16 4 16 9 0 4 -10 6 -23 4 -18 -4 -23 0 -23 16 0 12 2 21 3 21 8 0 49
-26 55 -35 5 -6 8 -5 8 3 0 7 -11 23 -25 36 -26 24 -34 56 -14 56 6 0 8 -7 5
-16 -5 -12 -2 -15 10 -10 8 3 20 6 25 6 5 0 9 5 9 10 0 6 -7 10 -15 10 -8 0
-15 5 -15 10 0 10 21 14 47 11 7 -1 24 5 37 14 23 15 24 15 22 -2 -2 -9 -14
-21 -27 -24 -13 -4 -17 -8 -9 -8 13 -1 13 -3 0 -10 -8 -6 -18 -7 -23 -4 -5 3
-8 0 -5 -8 3 -8 9 -14 14 -15 22 -2 64 -24 64 -34 0 -6 4 -9 9 -5 5 3 16 -2
24 -10 9 -8 21 -15 27 -15 7 0 5 6 -4 16 -9 8 -16 20 -16 26 0 5 -7 7 -16 4
-8 -3 -22 0 -30 8 -20 20 -17 28 6 21 11 -4 20 -2 20 4 0 6 -4 11 -10 11 -5 0
-10 4 -10 9 0 4 11 6 25 3 25 -4 35 11 15 23 -5 3 -10 10 -10 16 0 5 5 9 10 9
6 0 10 -7 10 -15 0 -9 8 -19 18 -22 33 -13 45 -49 12 -40 -11 3 -18 1 -14 -4
3 -5 14 -9 24 -9 10 0 21 -8 24 -18 6 -18 36 -27 36 -10 0 4 4 8 10 8 5 0 7
-7 4 -15 -4 -10 0 -15 14 -15 11 0 23 -6 26 -12 5 -10 7 -10 12 0 3 6 14 12
25 12 10 0 19 5 19 11 0 5 -4 8 -9 5 -5 -3 -11 3 -14 14 -7 27 9 25 24 -2 9
-17 9 -24 -5 -33 -10 -8 -14 -19 -9 -30 5 -15 2 -17 -16 -12 -18 4 -20 3 -10
-9 9 -11 9 -14 0 -14 -7 0 -9 -4 -6 -10 11 -18 -21 -10 -44 11 -14 13 -21 29
-18 40 3 12 0 19 -10 19 -11 0 -14 -9 -11 -35 2 -19 1 -35 -3 -35 -4 0 -5 -9
-2 -20 3 -11 13 -20 22 -20 14 0 14 2 1 10 -16 10 -13 17 10 21 26 4 68 -22
74 -47 4 -13 11 -24 17 -24 6 0 9 9 6 20 -8 31 2 24 18 -12 8 -18 14 -25 15
-16 0 12 7 16 28 14 15 -2 32 -4 39 -5 8 -1 8 -7 0 -25 -8 -16 -16 -21 -21
-15 -6 5 -14 9 -18 9 -11 0 2 -82 15 -95 7 -7 8 -4 4 8 -4 11 -1 17 9 17 11 0
14 6 8 23 -7 22 -7 22 15 3 18 -17 19 -21 7 -28 -20 -11 -10 -35 17 -42 13 -3
32 -15 45 -26 14 -14 22 -16 23 -8 0 7 5 2 10 -11 10 -25 -1 -41 -29 -41 -7 0
-10 -5 -7 -10 4 -7 12 -7 24 0 10 5 21 6 25 3 3 -3 6 0 6 8 0 8 9 15 20 16 15
1 20 -4 19 -20 -1 -17 -2 -18 -6 -4 -10 37 -20 5 -11 -35 5 -24 7 -51 5 -60
-7 -25 9 -32 22 -11 9 16 10 15 11 -7 0 -15 -5 -31 -12 -38 -9 -9 -9 -12 0
-12 7 0 12 -8 13 -17 0 -11 3 -13 6 -5 2 6 9 10 14 6 5 -3 9 0 9 5 0 6 -3 11
-7 11 -5 0 -9 15 -10 33 l-2 32 14 -30 c7 -16 14 -25 14 -20 1 6 12 -3 26 -19
34 -39 35 -100 3 -117 -13 -6 -24 -13 -26 -14 -5 -4 24 -51 33 -52 6 -1 13
-12 16 -25 3 -13 11 -22 17 -21 6 2 9 -3 6 -11 -3 -8 0 -17 6 -21 7 -5 8 -11
1 -19 -12 -14 -10 -106 2 -99 4 2 7 10 7 18 0 8 5 17 12 21 6 4 8 3 4 -4 -3
-5 0 -13 6 -15 10 -4 10 -6 1 -6 -7 -1 -13 -12 -13 -26 0 -18 4 -23 15 -19 17
7 20 -13 5 -36 -9 -13 -13 -12 -26 5 -16 19 -16 19 -10 -7 3 -15 2 -30 -4 -33
-13 -8 -13 -42 0 -50 17 -10 50 5 50 24 0 9 -6 23 -12 30 -11 10 -10 11 5 6
18 -8 25 -65 7 -65 -5 0 -10 -8 -10 -17 0 -9 -3 -13 -7 -10 -3 4 -12 2 -20 -4
-10 -9 -13 -8 -13 0 0 8 -6 7 -16 -3 -8 -9 -21 -16 -29 -16 -7 0 -35 -11 -62
-24 -26 -13 -77 -38 -113 -55 -60 -29 -163 -95 -308 -198 -55 -39 -61 -41 -81
-27 -12 9 -19 19 -16 24 3 4 -4 10 -15 13 -28 7 -44 -24 -25 -49 19 -25 19
-35 0 -28 -10 4 -15 0 -15 -14 0 -37 -10 -50 -33 -44 -12 3 -26 11 -30 19 -4
7 -15 13 -23 13 -13 0 -13 -3 -1 -20 16 -23 11 -73 -7 -67 -6 2 -12 14 -14 28
-2 13 -6 31 -9 39 -4 8 -7 17 -7 20 -1 3 -11 15 -24 28 -12 12 -20 27 -17 32
4 6 -1 7 -11 3 -11 -4 -15 -2 -11 4 4 6 1 13 -7 16 -11 4 -12 -2 -3 -34 11
-45 6 -55 -20 -44 -17 8 -17 8 0 12 9 3 17 9 17 14 0 5 -8 9 -17 10 -11 0 -13
3 -5 6 19 7 14 31 -8 43 -11 6 -20 20 -20 32 0 18 4 20 37 15 36 -6 36 -6 13
10 -17 12 -27 13 -40 6 -18 -12 -50 0 -50 18 0 6 -7 17 -15 25 -10 10 -15 11
-15 4 0 -17 46 -70 54 -63 6 6 10 -29 7 -54 -1 -7 3 -13 8 -13 5 0 9 -9 8 -20
-1 -15 -7 -18 -27 -15 -14 3 -19 2 -12 -1 6 -3 12 -10 12 -15 0 -6 -4 -7 -10
-4 -5 3 -10 0 -10 -8 0 -8 8 -14 18 -13 10 0 16 -6 16 -16 -2 -21 9 -23 25 -4
12 15 64 10 55 -6 -3 -5 -15 -6 -27 -3 -19 5 -20 5 -4 -5 9 -6 21 -9 25 -6 4
2 14 1 22 -5 13 -7 13 -9 -1 -9 -17 0 -22 -28 -7 -46 5 -7 38 -15 74 -19 55
-6 72 -12 102 -40 21 -18 51 -40 67 -49 17 -9 37 -21 45 -26 58 -38 317 -155
363 -164 70 -15 82 -31 39 -51 -12 -5 -22 -16 -22 -24 0 -12 -3 -12 -12 -3 -7
7 -16 12 -21 12 -5 0 -1 -7 7 -16 9 -8 13 -21 9 -27 -4 -7 0 -8 11 -4 14 6 17
3 12 -9 -3 -8 -6 -18 -6 -20 0 -2 -9 -4 -20 -4 -11 0 -20 4 -20 9 0 5 -13 -3
-29 -18 -27 -24 -34 -53 -8 -33 16 13 50 11 60 -2 5 -8 9 -8 15 1 4 7 13 9 20
4 10 -6 10 -10 -1 -19 -11 -10 -21 -9 -43 3 l-29 15 -10 -48 c-8 -36 -8 -48 2
-50 7 -2 13 -8 13 -13 0 -5 7 -9 15 -9 8 0 15 -4 15 -10 0 -5 -4 -10 -9 -10
-5 0 -17 -3 -27 -7 -13 -5 -16 -3 -11 10 9 24 -20 22 -33 -2 -7 -13 -7 -22 0
-26 5 -3 10 -2 10 4 0 6 7 8 15 5 12 -5 13 -10 4 -20 -14 -17 2 -19 18 -3 15
15 53 2 53 -19 0 -13 -2 -13 -15 4 -14 19 -14 19 -15 -3 0 -12 -4 -25 -10 -28
-13 -8 -13 -35 1 -35 6 0 13 9 16 20 6 23 9 24 27 8 14 -13 8 -32 -24 -72 -11
-14 -12 -20 -2 -23 14 -5 16 -33 2 -33 -5 0 -10 4 -10 8 0 5 -7 17 -15 28 -15
19 -15 19 -12 -1 1 -11 6 -26 10 -32 5 -7 6 -13 3 -13 -3 0 1 -8 10 -19 10
-12 24 -17 38 -13 l21 5 -21 -24 c-12 -13 -27 -34 -33 -46 -10 -19 -9 -23 4
-23 9 0 15 9 15 24 0 27 16 43 23 24 4 -12 26 29 33 60 5 24 14 26 14 4 0 -12
5 -22 12 -22 6 0 2 -10 -10 -23 -24 -25 -30 -67 -9 -67 9 0 8 -3 -2 -9 -7 -5
-21 -7 -30 -5 -23 6 -37 -7 -45 -41 -6 -28 -5 -29 9 -11 14 19 21 12 16 -17 0
-4 4 -7 9 -7 6 0 10 11 10 24 0 27 22 40 39 23 16 -16 13 -26 -6 -23 -14 3
-18 -3 -19 -26 -1 -17 -7 -34 -14 -38 -8 -5 -9 -10 -2 -14 6 -3 14 3 17 15 6
17 9 19 16 8 6 -10 9 -8 9 9 0 13 6 22 15 22 8 0 15 7 15 15 0 8 5 15 10 15 7
0 7 -6 1 -19 -6 -10 -7 -22 -3 -26 4 -5 1 -5 -5 -1 -10 5 -13 -4 -13 -33 0
-22 -5 -43 -11 -47 -14 -9 31 -53 49 -46 7 2 12 -4 12 -18 0 -15 4 -20 15 -17
8 4 18 1 22 -6 9 -15 4 -80 -7 -91 -13 -13 -13 -56 1 -56 6 0 8 10 5 23 -3 12
-3 16 0 9 3 -6 10 -10 15 -6 5 3 9 -4 9 -15 0 -12 -3 -20 -7 -19 -17 3 -64
-23 -58 -32 3 -5 8 -10 11 -10 3 0 3 4 0 9 -3 5 5 11 19 13 14 3 26 0 29 -8 3
-8 -2 -11 -15 -9 -12 2 -19 -2 -19 -11 0 -11 6 -13 20 -9 11 3 20 2 20 -4 0
-5 -10 -13 -22 -17 -38 -12 -62 -44 -33 -44 8 0 15 -4 15 -10 0 -5 -11 -10
-25 -10 -14 0 -25 -4 -25 -10 0 -5 5 -10 11 -10 5 0 3 -10 -5 -22 -21 -29 -20
-38 2 -38 10 0 28 -7 41 -16 18 -13 22 -23 17 -45 -3 -17 -1 -29 5 -29 6 0 10
-10 9 -22 -4 -45 -1 -50 25 -46 31 6 33 -8 3 -18 -17 -5 -27 0 -45 22 -25 31
-31 27 -10 -7 10 -17 10 -23 0 -26 -7 -3 -13 -9 -13 -14 0 -4 7 -6 15 -3 25
10 17 -17 -16 -48 -24 -24 -28 -32 -18 -44 8 -10 8 -14 0 -14 -6 0 -11 -4 -11
-10 0 -17 25 -11 38 10 8 13 23 20 42 20 26 0 31 -5 37 -31 3 -18 9 -26 13
-19 5 8 9 7 13 -3 3 -9 -1 -18 -10 -21 -11 -4 -14 -15 -11 -36 3 -19 1 -29 -6
-27 -6 2 -10 13 -8 24 4 25 -24 38 -33 15 -5 -14 -7 -14 -15 -2 -8 12 -10 9
-10 -10 0 -15 -3 -20 -8 -13 -5 8 -11 8 -24 -1 -10 -7 -15 -16 -12 -19 4 -3 0
-13 -9 -21 -8 -8 -17 -12 -21 -9 -3 4 -6 -2 -6 -12 0 -18 1 -18 17 -3 15 16
17 16 28 1 16 -22 35 -8 35 25 1 23 2 25 11 9 12 -20 3 -57 -14 -57 -7 0 -6
-4 3 -10 8 -5 12 -12 8 -15 -3 -3 -13 1 -22 10 -9 9 -16 13 -16 8 0 -13 22
-33 36 -33 7 0 15 8 17 17 4 15 5 15 6 2 1 -12 13 -16 52 -18 46 -1 54 2 87
34 27 26 45 35 69 35 39 0 37 -12 22 190 -21 289 -21 293 -7 288 69 -26 427
-138 439 -138 5 0 26 -7 47 -16 l38 -17 2 -76 c4 -138 9 -192 20 -203 14 -14
108 5 171 34 l43 21 -8 351 c-15 634 -8 949 31 1431 18 217 29 292 61 411 25
91 25 91 15 360 -19 521 -86 837 -235 1107 -121 219 -261 361 -533 540 -117
77 -165 102 -303 157 -187 75 -308 110 -477 141 -65 12 -72 16 -76 39 -3 21
-4 22 -6 3z m-681 -223 c0 -5 -7 -10 -15 -10 -8 0 -15 5 -15 10 0 6 7 10 15
10 8 0 15 -4 15 -10z m682 -112 c-15 -15 -26 -4 -18 18 5 13 9 15 18 6 9 -9 9
-15 0 -24z m-1042 -5 c0 -16 -16 -28 -40 -31 -14 -1 -31 -11 -39 -22 -16 -24
-33 -26 -24 -3 9 23 38 50 60 56 29 8 43 7 43 0z m477 -69 c-3 -3 -12 -4 -19
-1 -8 3 -5 6 6 6 11 1 17 -2 13 -5z m-257 -54 c0 -5 -2 -10 -4 -10 -3 0 -8 5
-11 10 -3 6 -1 10 4 10 6 0 11 -4 11 -10z m-617 -31 c-4 -15 -8 -17 -14 -8 -8
14 -3 29 11 29 4 0 6 -9 3 -21z m1240 -19 c3 -11 1 -20 -4 -20 -5 0 -9 9 -9
20 0 11 2 20 4 20 2 0 6 -9 9 -20z m277 -34 c0 -2 -7 -7 -16 -10 -8 -3 -12 -2
-9 4 6 10 25 14 25 6z m-480 -26 c0 -5 -5 -10 -11 -10 -5 0 -7 5 -4 10 3 6 8
10 11 10 2 0 4 -4 4 -10z m326 -92 c-11 -6 -15 -16 -11 -29 5 -14 2 -19 -12
-18 -10 0 -13 3 -7 5 7 3 9 14 7 26 -6 21 14 41 30 31 5 -3 2 -10 -7 -15z
m-1556 -19 c0 -5 -10 -9 -21 -9 -18 0 -19 2 -9 15 12 15 30 12 30 -6z m1612
-4 c3 -14 1 -25 -3 -25 -5 0 -9 7 -9 16 0 8 -4 12 -10 9 -5 -3 -10 1 -10 9 0
26 27 18 32 -9z m-543 -16 c-9 -5 -15 -4 -18 2 -2 6 3 15 10 20 9 5 15 4 18
-2 2 -6 -3 -15 -10 -20z m327 4 c-10 -10 -19 5 -10 18 6 11 8 11 12 0 2 -7 1
-15 -2 -18z m-45 -1 c-7 -2 -18 1 -23 6 -8 8 -4 9 13 5 13 -4 18 -8 10 -11z
m-320 -10 c-7 -2 -18 1 -23 6 -8 8 -4 9 13 5 13 -4 18 -8 10 -11z m83 -7 c-3
-7 -12 -11 -19 -8 -11 4 -12 8 -2 18 15 16 28 10 21 -10z m375 -2 c10 -19 9
-22 -4 -17 -8 4 -15 15 -15 27 0 23 2 22 19 -10z m-1542 -5 c-3 -8 -6 -5 -6 6
-1 11 2 17 5 13 3 -3 4 -12 1 -19z m1324 9 c-1 -4 -1 -14 -1 -23 0 -8 -4 -12
-10 -9 -13 8 -13 48 1 43 6 -2 10 -7 10 -11z m419 -3 c0 -2 -7 -4 -15 -4 -8 0
-15 4 -15 10 0 5 7 7 15 4 8 -4 15 -8 15 -10z m590 -5 c0 -5 -4 -9 -10 -9 -5
0 -10 7 -10 16 0 8 5 12 10 9 6 -3 10 -10 10 -16z m-2397 -9 c-5 -19 -23 -29
-23 -12 0 7 20 32 26 32 1 0 0 -9 -3 -20z m1714 4 c-3 -4 -2 -15 3 -24 7 -13
6 -20 -5 -23 -9 -4 -12 -1 -9 7 3 8 1 17 -5 21 -17 10 -13 25 6 25 9 0 13 -3
10 -6z m-690 -10 c-3 -3 -12 -4 -19 -1 -8 3 -5 6 6 6 11 1 17 -2 13 -5z m440
-10 c7 -19 -10 -51 -23 -44 -5 3 -10 17 -12 33 -2 19 1 27 13 27 8 0 18 -7 22
-16z m76 -7 c4 3 7 1 7 -5 0 -18 -27 -14 -34 4 -5 13 -4 14 7 6 8 -7 17 -9 20
-5z m42 3 c-3 -5 -11 -10 -16 -10 -6 0 -7 5 -4 10 3 6 11 10 16 10 6 0 7 -4 4
-10z m-1485 -11 c0 -5 6 -7 13 -3 7 4 8 3 4 -2 -5 -5 -16 -9 -24 -9 -9 0 -18
-7 -20 -15 -4 -13 -3 -13 6 0 17 24 24 4 8 -26 -13 -25 -21 -28 -68 -30 -30
-1 -46 1 -36 3 10 3 16 10 14 17 -3 6 6 17 19 23 19 9 24 8 27 -6 3 -9 5 -2 6
16 0 17 7 34 14 36 21 9 37 7 37 -4z m1205 1 c3 -5 1 -10 -4 -10 -6 0 -11 5
-11 10 0 6 2 10 4 10 3 0 8 -4 11 -10z m-131 -7 c-5 -5 -12 -12 -16 -18 -4 -6
-8 -2 -8 8 0 9 7 17 17 17 9 0 12 -3 7 -7z m632 -4 c3 -6 1 -16 -5 -22 -8 -8
-11 -8 -11 1 0 7 -10 12 -22 12 -19 0 -20 2 -8 10 20 13 37 12 46 -1z m-1838
-11 c-3 -7 -17 -15 -32 -19 -27 -8 -28 -7 -10 12 19 21 48 26 42 7z m1793 -18
c10 0 20 -4 23 -8 2 -4 -11 -8 -30 -8 -27 0 -34 4 -34 20 0 16 3 17 12 8 7 -7
20 -12 29 -12z m99 6 c0 -3 -4 -8 -10 -11 -5 -3 -10 -1 -10 4 0 6 5 11 10 11
6 0 10 -2 10 -4z m-427 -22 c3 -4 -1 -13 -9 -21 -17 -18 -29 -11 -21 12 7 16
19 20 30 9z m437 -4 c0 -5 -8 -10 -17 -10 -15 0 -16 2 -3 10 19 12 20 12 20 0z
m150 0 c0 -5 -2 -10 -4 -10 -3 0 -8 5 -11 10 -3 6 -1 10 4 10 6 0 11 -4 11
-10z m-1153 -23 c-6 -20 -27 -19 -27 2 0 14 5 19 15 14 9 -3 14 -10 12 -16z
m937 -6 c4 -5 -3 -7 -14 -4 -23 6 -26 13 -6 13 8 0 17 -4 20 -9z m-1878 -18
c15 -21 18 -63 5 -63 -16 0 -42 -108 -35 -145 4 -23 2 -35 -5 -35 -6 0 -11 9
-11 21 0 18 -2 19 -15 5 -9 -9 -15 -21 -14 -28 4 -33 -2 -40 -27 -35 -19 3
-24 1 -20 -10 3 -8 -1 -21 -10 -30 -8 -9 -13 -21 -11 -27 3 -6 -2 -17 -10 -25
-13 -12 -14 -11 -8 10 4 13 4 21 0 17 -4 -4 -16 2 -26 14 -16 17 -19 18 -19 5
0 -10 -4 -17 -8 -17 -4 0 -6 15 -4 34 3 27 -1 37 -17 48 -22 13 -29 38 -11 38
6 0 10 -7 10 -15 0 -8 5 -15 11 -15 5 0 9 8 8 18 -3 23 11 72 21 72 5 0 12 9
15 20 8 25 25 26 26 3 1 -15 2 -14 6 2 3 11 15 28 26 38 17 14 19 20 8 26 -11
7 -9 13 8 30 11 11 24 21 29 21 4 0 13 9 20 20 15 25 40 26 58 3z m34 -4 c0
-11 -4 -17 -10 -14 -5 3 -10 13 -10 21 0 8 5 14 10 14 6 0 10 -9 10 -21z
m1890 -5 c0 -8 -6 -14 -14 -14 -9 0 -12 7 -9 20 6 22 23 18 23 -6z m-805 6
c-3 -5 -10 -10 -16 -10 -5 0 -9 5 -9 10 0 6 7 10 16 10 8 0 12 -4 9 -10z
m-382 -35 c-4 -21 -7 -22 -19 -10 -18 18 -18 23 4 28 9 3 18 5 18 6 1 0 -1
-10 -3 -24z m98 -5 c10 0 19 -4 19 -9 0 -6 -8 -8 -18 -6 -15 3 -18 -2 -14 -21
4 -23 3 -24 -22 -13 -27 13 -37 35 -11 25 8 -3 14 -2 14 2 -1 4 0 18 1 32 2
18 4 20 7 8 2 -10 13 -18 24 -18z m14 20 c3 -5 1 -10 -4 -10 -6 0 -11 5 -11
10 0 6 2 10 4 10 3 0 8 -4 11 -10z m-698 -22 c-3 -8 -6 -5 -6 6 -1 11 2 17 5
13 3 -3 4 -12 1 -19z m1002 8 c8 -9 25 -13 44 -11 27 4 29 2 16 -8 -19 -14
-47 -63 -30 -53 13 8 14 -4 2 -23 -7 -11 -10 -9 -16 8 -3 11 -4 29 -1 39 5 14
0 17 -29 16 -36 -2 -45 12 -23 34 16 16 23 15 37 -2z m107 -11 c-3 -9 -11 -13
-16 -10 -8 5 -7 11 1 21 14 18 24 11 15 -11z m794 9 c0 -14 -3 -14 -15 -4 -8
7 -15 14 -15 16 0 2 7 4 15 4 8 0 15 -7 15 -16z m-1079 -17 c-10 -9 -11 -8 -5
6 3 10 9 15 12 12 3 -3 0 -11 -7 -18z m55 -1 c3 -23 -20 -15 -24 8 -3 11 1 17
9 14 7 -2 13 -12 15 -22z m1444 14 c0 -5 -2 -10 -4 -10 -3 0 -8 5 -11 10 -3 6
-1 10 4 10 6 0 11 -4 11 -10z m-2407 -35 c-3 -9 -8 -14 -10 -11 -3 3 -2 9 2
15 9 16 15 13 8 -4z m922 -14 c-3 -6 -11 -11 -16 -11 -5 0 -4 6 3 14 14 16 24
13 13 -3z m252 -3 c-3 -8 -6 -5 -6 6 -1 11 2 17 5 13 3 -3 4 -12 1 -19z m773
-2 c0 -8 -9 -18 -20 -21 -11 -3 -20 -13 -20 -21 0 -13 -2 -13 -13 -2 -15 15
-29 48 -21 48 3 0 14 -4 24 -10 13 -7 21 -6 30 5 16 19 20 19 20 1z m-1206
-40 c-3 -9 -10 -16 -15 -16 -6 0 -5 9 1 21 13 24 24 20 14 -5z m1761 14 c-3
-5 -10 -10 -16 -10 -5 0 -9 5 -9 10 0 6 7 10 16 10 8 0 12 -4 9 -10z m-1648
-35 c-16 -17 -30 5 -15 23 9 10 13 10 19 1 4 -7 2 -18 -4 -24z m193 22 c0 -7
-7 -22 -16 -33 -14 -18 -15 -18 -8 6 6 22 5 23 -10 11 -9 -7 -16 -10 -16 -6 0
9 31 34 43 35 4 0 7 -6 7 -13z m-1095 -7 c3 -5 1 -10 -4 -10 -6 0 -11 5 -11
10 0 6 2 10 4 10 3 0 8 -4 11 -10z m1015 -5 c0 -8 -4 -15 -10 -15 -5 0 -10 7
-10 15 0 8 5 15 10 15 6 0 10 -7 10 -15z m1120 5 c0 -5 -4 -10 -10 -10 -5 0
-10 5 -10 10 0 6 5 10 10 10 6 0 10 -4 10 -10z m-2102 -20 c-7 -11 -17 -20
-22 -20 -5 0 -1 9 9 20 10 11 20 20 22 20 2 0 -2 -9 -9 -20z m952 16 c0 -2 -7
-6 -15 -10 -8 -3 -15 -1 -15 4 0 6 7 10 15 10 8 0 15 -2 15 -4z m1060 -22 c0
-19 -10 -17 -39 5 l-23 18 31 -5 c18 -2 31 -10 31 -18z m-1100 1 c0 -8 -6 -15
-14 -15 -15 0 -26 -21 -26 -48 1 -14 4 -13 19 5 10 12 21 19 25 16 3 -4 6 3 6
14 0 11 7 20 15 20 8 0 15 -6 15 -14 0 -20 17 -16 36 10 9 12 14 15 11 6 -3
-9 0 -27 7 -41 13 -24 11 -48 -5 -48 -4 0 -6 7 -3 14 4 11 -1 14 -23 12 -15
-1 -34 2 -42 8 -11 8 -13 8 -8 -1 12 -19 -3 -40 -29 -40 -13 0 -24 3 -24 7 0
4 -11 5 -25 2 -30 -5 -33 13 -5 28 11 6 20 19 20 29 0 10 10 26 23 34 28 20
27 20 27 2z m170 -5 c0 -5 -5 -10 -11 -10 -5 0 -7 5 -4 10 3 6 8 10 11 10 2 0
4 -4 4 -10z m958 -68 c6 -18 -15 -14 -22 4 -4 10 -1 14 6 12 6 -2 14 -10 16
-16z m76 3 c3 -8 2 -15 -3 -15 -5 0 -14 7 -21 15 -10 12 -10 15 3 15 8 0 17
-7 21 -15z m-1304 -57 c0 -5 -9 -8 -20 -8 -18 0 -19 3 -8 20 9 14 14 16 20 7
4 -7 8 -15 8 -19z m140 2 c-24 -16 -31 -11 -19 11 8 16 14 18 22 10 9 -9 8
-14 -3 -21z m-510 10 c0 -5 -2 -10 -4 -10 -3 0 -8 5 -11 10 -3 6 -1 10 4 10 6
0 11 -4 11 -10z m1790 2 c0 -14 -11 -21 -26 -15 -8 3 -11 9 -8 14 7 11 34 12
34 1z m-1926 -18 c3 -8 2 -12 -4 -9 -6 3 -10 10 -10 16 0 14 7 11 14 -7z
m1789 9 c-7 -2 -19 -2 -25 0 -7 3 -2 5 12 5 14 0 19 -2 13 -5z m-48 -23 c-3
-5 -12 -7 -20 -3 -21 7 -19 13 6 13 11 0 18 -4 14 -10z m-1270 -20 c3 -5 1
-10 -4 -10 -6 0 -11 5 -11 10 0 6 2 10 4 10 3 0 8 -4 11 -10z m1326 -3 c-1
-12 -15 -9 -19 4 -3 6 1 10 8 8 6 -3 11 -8 11 -12z m-1396 -7 c3 -5 -1 -10 -9
-10 -9 0 -16 5 -16 10 0 6 4 10 9 10 6 0 13 -4 16 -10z m-1048 -22 c-3 -8 -6
-5 -6 6 -1 11 2 17 5 13 3 -3 4 -12 1 -19z m58 12 c3 -5 1 -10 -4 -10 -6 0
-11 5 -11 10 0 6 2 10 4 10 3 0 8 -4 11 -10z m945 -20 c0 -11 -4 -20 -10 -20
-5 0 -10 9 -10 20 0 11 5 20 10 20 6 0 10 -9 10 -20z m80 -6 c0 -8 -4 -12 -10
-9 -5 3 -10 13 -10 21 0 8 5 12 10 9 6 -3 10 -13 10 -21z m22 -6 c-7 -7 -10
-5 -7 8 5 29 6 30 12 16 3 -8 1 -18 -5 -24z m-154 -4 c4 3 8 -4 8 -14 0 -10
-9 -23 -19 -30 -18 -11 -19 -9 -15 19 2 17 1 31 -4 31 -5 0 -6 5 -2 11 5 8 10
6 16 -5 5 -9 12 -14 16 -12z m232 -21 c0 -7 -4 -13 -10 -13 -5 0 -10 7 -10 15
0 9 -6 12 -15 9 -8 -4 -15 -1 -15 4 0 6 8 12 18 14 18 4 32 -8 32 -29z m50 27
c0 -5 -4 -10 -10 -10 -5 0 -10 5 -10 10 0 6 5 10 10 10 6 0 10 -4 10 -10z
m1355 0 c3 -5 -1 -10 -9 -10 -9 0 -16 5 -16 10 0 6 4 10 9 10 6 0 13 -4 16
-10z m142 -6 c-3 -3 -12 -4 -19 -1 -8 3 -5 6 6 6 11 1 17 -2 13 -5z m-1947
-44 c0 -5 -5 -10 -11 -10 -5 0 -7 5 -4 10 3 6 8 10 11 10 2 0 4 -4 4 -10z
m660 -6 c0 -8 -4 -12 -10 -9 -5 3 -10 10 -10 16 0 5 5 9 10 9 6 0 10 -7 10
-16z m1390 6 c0 -5 -2 -10 -4 -10 -3 0 -8 5 -11 10 -3 6 -1 10 4 10 6 0 11 -4
11 -10z m-1560 -21 c0 -6 -4 -7 -10 -4 -5 3 -10 11 -10 16 0 6 5 7 10 4 6 -3
10 -11 10 -16z m-220 -13 c0 -7 -7 -13 -15 -13 -17 0 -17 0 -9 21 7 18 24 12
24 -8z m1492 -15 c2 -13 -3 -26 -9 -28 -8 -3 -13 4 -13 15 0 11 -6 23 -12 25
-10 4 -9 8 2 16 18 12 29 3 32 -28z m-1545 -13 c-3 -7 -5 -2 -5 12 0 14 2 19
5 13 2 -7 2 -19 0 -25z m1773 8 c0 -8 -9 -16 -19 -19 -17 -4 -18 -2 -9 19 11
24 28 24 28 0z m-130 4 c0 -5 -4 -10 -10 -10 -5 0 -10 5 -10 10 0 6 5 10 10
10 6 0 10 -4 10 -10z m-1580 -30 c0 -5 -4 -10 -10 -10 -5 0 -10 5 -10 10 0 6
5 10 10 10 6 0 10 -4 10 -10z m342 -35 c9 2 23 -4 30 -12 10 -12 9 -18 -7 -29
-17 -13 -20 -12 -27 3 -5 14 -7 12 -7 -9 -1 -16 -6 -28 -11 -28 -6 0 -10 12
-9 28 0 15 -2 38 -5 51 -3 13 -2 29 2 35 4 6 9 0 12 -15 3 -17 11 -25 22 -24z
m-353 -9 c-2 -2 -14 0 -26 5 -15 5 -21 14 -17 24 6 14 9 13 26 -5 11 -12 18
-23 17 -24z m156 34 c3 -5 1 -10 -4 -10 -6 0 -11 5 -11 10 0 6 2 10 4 10 3 0
8 -4 11 -10z m135 -20 c0 -22 -8 -25 -30 -10 -13 9 -13 11 0 20 22 15 30 12
30 -10z m1327 -24 c3 -30 0 -33 -17 -29 -11 3 -20 10 -20 15 0 6 7 7 16 4 12
-5 15 -2 10 10 -5 13 -1 34 7 34 1 0 3 -15 4 -34z m-1510 -8 c-3 -7 -5 -2 -5
12 0 14 2 19 5 13 2 -7 2 -19 0 -25z m20 10 c-3 -8 -6 -5 -6 6 -1 11 2 17 5
13 3 -3 4 -12 1 -19z m173 -18 c0 -5 -5 -10 -11 -10 -5 0 -7 5 -4 10 3 6 8 10
11 10 2 0 4 -4 4 -10z m-700 -10 c0 -5 -4 -10 -10 -10 -5 0 -10 5 -10 10 0 6
5 10 10 10 6 0 10 -4 10 -10z m420 6 c0 -3 -4 -8 -10 -11 -5 -3 -10 -1 -10 4
0 6 5 11 10 11 6 0 10 -2 10 -4z m-583 -28 c-3 -8 -6 -5 -6 6 -1 11 2 17 5 13
3 -3 4 -12 1 -19z m783 1 c0 -5 5 -7 10 -4 13 8 32 -4 25 -15 -3 -5 -16 -4
-30 2 -25 11 -34 28 -15 28 6 0 10 -5 10 -11z m-385 -9 c3 -6 -1 -7 -9 -4 -18
7 -21 14 -7 14 6 0 13 -4 16 -10z m335 -32 c0 -4 -4 -8 -10 -8 -5 0 -10 5 -10
11 0 5 -4 7 -10 4 -5 -3 -10 -1 -10 4 0 6 5 11 11 11 5 0 7 6 4 13 -4 6 1 3 9
-7 9 -11 16 -23 16 -28z m-190 22 c0 -5 -4 -10 -10 -10 -5 0 -10 5 -10 10 0 6
5 10 10 10 6 0 10 -4 10 -10z m338 -15 c-3 -3 -9 2 -12 12 -6 14 -5 15 5 6 7
-7 10 -15 7 -18z m1282 15 c0 -5 -4 -10 -10 -10 -5 0 -10 5 -10 10 0 6 5 10
10 10 6 0 10 -4 10 -10z m31 -23 c-16 -16 -26 0 -10 19 9 11 15 12 17 4 2 -6
-1 -17 -7 -23z m-1417 1 c3 -13 1 -27 -4 -32 -7 -7 -10 -6 -10 3 0 7 -4 9 -10
6 -5 -3 -10 -1 -10 4 0 6 5 11 11 11 6 0 9 7 5 15 -3 8 -2 15 3 15 5 0 11 -10
15 -22z m1496 18 c0 -3 -4 -8 -10 -11 -5 -3 -10 -1 -10 4 0 6 5 11 10 11 6 0
10 -2 10 -4z m-1422 -42 c-10 -10 -28 6 -28 24 0 15 1 15 17 -1 9 -9 14 -19
11 -23z m71 22 c8 -9 8 -16 2 -20 -6 -4 -15 3 -21 14 -12 23 2 27 19 6z m1501
-6 c0 -5 -2 -10 -4 -10 -3 0 -8 5 -11 10 -3 6 -1 10 4 10 6 0 11 -4 11 -10z
m-1623 -67 c-3 -10 -5 -4 -5 12 0 17 2 24 5 18 2 -7 2 -21 0 -30z m-17 -16 c0
-10 -4 -15 -10 -12 -5 3 -10 18 -10 33 0 21 2 24 10 12 5 -8 10 -23 10 -33z
m-180 0 c0 -5 -4 -5 -10 -2 -5 3 -10 14 -10 23 0 15 2 15 10 2 5 -8 10 -19 10
-23z m260 18 c0 -8 -2 -15 -4 -15 -2 0 -6 7 -10 15 -3 8 -1 15 4 15 6 0 10 -7
10 -15z m124 -36 c-9 -16 -21 -1 -18 23 4 34 4 35 15 10 5 -13 6 -28 3 -33z
m-45 22 c9 -16 7 -17 -14 -13 -34 6 -33 18 2 31 1 1 7 -7 12 -18z m1261 -12
c0 -5 -4 -9 -10 -9 -5 0 -10 7 -10 16 0 8 5 12 10 9 6 -3 10 -10 10 -16z m-63
-11 c-3 -8 -6 -5 -6 6 -1 11 2 17 5 13 3 -3 4 -12 1 -19z m-1320 -10 c-3 -8
-6 -5 -6 6 -1 11 2 17 5 13 3 -3 4 -12 1 -19z m-177 -9 c-7 -11 -14 -19 -16
-16 -7 7 7 37 17 37 6 0 5 -9 -1 -21z m203 -4 c-7 -21 -13 -19 -13 6 0 11 4
18 10 14 5 -3 7 -12 3 -20z m1327 15 c0 -5 -5 -10 -11 -10 -5 0 -7 5 -4 10 3
6 8 10 11 10 2 0 4 -4 4 -10z m-1270 -21 c0 -5 -4 -9 -10 -9 -5 0 -10 7 -10
16 0 8 5 12 10 9 6 -3 10 -10 10 -16z m110 11 c0 -5 -2 -10 -4 -10 -3 0 -8 5
-11 10 -3 6 -1 10 4 10 6 0 11 -4 11 -10z m1579 -57 c1 -7 -3 -13 -9 -13 -5 0
-10 15 -9 33 0 27 2 29 9 12 5 -11 9 -26 9 -32z m-1719 17 c0 -13 -5 -18 -15
-14 -12 5 -13 10 -4 20 15 19 19 18 19 -6z m-100 -30 c0 -5 -4 -10 -10 -10 -5
0 -10 5 -10 10 0 6 5 10 10 10 6 0 10 -4 10 -10z m280 -10 c0 -5 -2 -10 -4
-10 -3 0 -8 5 -11 10 -3 6 -1 10 4 10 6 0 11 -4 11 -10z m1250 6 c0 -3 -4 -8
-10 -11 -5 -3 -10 -1 -10 4 0 6 5 11 10 11 6 0 10 -2 10 -4z m261 -29 c-13
-13 -26 -3 -16 12 3 6 11 8 17 5 6 -4 6 -10 -1 -17z m-1641 -16 c15 -15 13
-18 -14 -43 -21 -18 -33 -23 -38 -15 -3 6 1 17 10 24 9 7 12 13 6 13 -7 0 -11
11 -10 24 1 26 17 24 46 -3z m90 -12 c0 -6 -4 -7 -10 -4 -5 3 -10 11 -10 16 0
6 5 7 10 4 6 -3 10 -11 10 -16z m1180 5 c0 -8 -4 -12 -10 -9 -5 3 -10 10 -10
16 0 5 5 9 10 9 6 0 10 -7 10 -16z m-1148 -11 c-6 -2 -9 -10 -6 -15 4 -7 2 -8
-5 -4 -13 9 -5 26 12 25 9 0 8 -2 -1 -6z m-392 -33 c0 -5 -2 -10 -4 -10 -3 0
-8 5 -11 10 -3 6 -1 10 4 10 6 0 11 -4 11 -10z m320 0 c0 -5 -2 -10 -4 -10 -3
0 -8 5 -11 10 -3 6 -1 10 4 10 6 0 11 -4 11 -10z m-255 -10 c3 -5 1 -10 -4
-10 -6 0 -11 5 -11 10 0 6 2 10 4 10 3 0 8 -4 11 -10z m135 -11 c0 -6 -4 -7
-10 -4 -5 3 -10 11 -10 16 0 6 5 7 10 4 6 -3 10 -11 10 -16z m-310 -9 c0 -5
-2 -10 -4 -10 -3 0 -8 5 -11 10 -3 6 -1 10 4 10 6 0 11 -4 11 -10z m185 -20
c3 -5 1 -10 -4 -10 -6 0 -11 5 -11 10 0 6 2 10 4 10 3 0 8 -4 11 -10z m-67
-35 c-3 -3 -9 2 -12 12 -6 14 -5 15 5 6 7 -7 10 -15 7 -18z m159 -6 l1 -24 -5
24 c-4 19 -7 21 -14 10 -7 -11 -9 -10 -9 4 0 28 25 14 27 -14z m1530 -11 c-3
-7 -5 -2 -5 12 0 14 2 19 5 13 2 -7 2 -19 0 -25z m-1539 -43 c-3 -3 -9 2 -12
12 -6 14 -5 15 5 6 7 -7 10 -15 7 -18z m-128 5 c0 -5 -2 -10 -4 -10 -3 0 -8 5
-11 10 -3 6 -1 10 4 10 6 0 11 -4 11 -10z m1639 -22 c-1 -18 -2 -19 -6 -5 -2
9 -9 14 -15 11 -7 -4 -8 -2 -4 4 12 20 26 13 25 -10z m-1197 -33 c-5 -28 -22
-24 -22 6 0 10 6 19 14 19 9 0 12 -8 8 -25z m-227 -15 c3 -5 1 -10 -4 -10 -6
0 -11 5 -11 10 0 6 2 10 4 10 3 0 8 -4 11 -10z m250 -9 c3 -5 1 -12 -5 -16 -5
-3 -10 1 -10 9 0 18 6 21 15 7z m1515 -1 c0 -5 -5 -10 -11 -10 -5 0 -7 5 -4
10 3 6 8 10 11 10 2 0 4 -4 4 -10z m-1960 -60 c0 -5 -4 -10 -10 -10 -5 0 -10
5 -10 10 0 6 5 10 10 10 6 0 10 -4 10 -10z m426 -27 c-11 -11 -19 6 -11 24 8
17 8 17 12 0 3 -10 2 -21 -1 -24z m-116 -4 c0 -5 -7 -9 -15 -9 -15 0 -20 12
-9 23 8 8 24 -1 24 -14z m136 -5 c-4 -9 -9 -15 -11 -12 -3 3 -3 13 1 22 4 9 9
15 11 12 3 -3 3 -13 -1 -22z m-474 -21 c-3 -16 -7 -22 -10 -15 -4 13 4 42 11
42 2 0 2 -12 -1 -27z m-31 -20 c-9 -16 -10 -14 -11 12 0 21 3 26 11 18 8 -8 8
-16 0 -30z m469 17 c0 -5 8 -10 17 -10 28 0 5 -13 -29 -16 -27 -3 -30 -2 -15
7 9 6 15 14 12 20 -4 5 -1 9 4 9 6 0 11 -4 11 -10z m-570 -134 c0 -3 -4 -8
-10 -11 -5 -3 -10 -1 -10 4 0 6 5 11 10 11 6 0 10 -2 10 -4z m504 -12 c3 -8 2
-12 -4 -9 -6 3 -10 10 -10 16 0 14 7 11 14 -7z m86 4 c0 -4 -7 -8 -15 -8 -8 0
-15 4 -15 8 0 5 7 9 15 9 8 0 15 -4 15 -9z m-590 -48 c0 -5 -5 -10 -11 -10 -5
0 -7 5 -4 10 3 6 8 10 11 10 2 0 4 -4 4 -10z m580 -45 c0 -8 -4 -15 -10 -15
-5 0 -7 7 -4 15 4 8 8 15 10 15 2 0 4 -7 4 -15z m30 -31 c0 -8 -5 -12 -10 -9
-6 4 -8 11 -5 16 9 14 15 11 15 -7z m2027 -6 c-3 -8 -6 -5 -6 6 -1 11 2 17 5
13 3 -3 4 -12 1 -19z m-1823 -34 c3 -8 2 -12 -4 -9 -6 3 -10 10 -10 16 0 14 7
11 14 -7z m-200 -18 c-6 -15 -24 -23 -24 -11 0 8 24 34 28 30 1 -1 0 -10 -4
-19z m296 5 c0 -5 -7 -11 -15 -15 -9 -3 -15 0 -15 9 0 8 7 15 15 15 8 0 15 -4
15 -9z m-368 -100 c-6 -17 -8 -31 -4 -31 17 -1 -25 -20 -43 -20 -13 0 -16 3
-8 8 6 4 11 14 11 22 -2 37 3 49 17 44 10 -4 15 0 15 12 0 13 3 15 11 7 8 -8
9 -20 1 -42z m78 6 c0 -5 -4 -5 -10 -2 -5 3 -10 14 -10 23 0 15 2 15 10 2 5
-8 10 -19 10 -23z m-35 14 c3 -5 1 -12 -5 -16 -5 -3 -10 1 -10 9 0 18 6 21 15
7z m-292 -56 c-3 -9 -8 -14 -10 -11 -3 3 -2 9 2 15 9 16 15 13 8 -4z m71 6 c7
-11 -3 -41 -14 -41 -5 0 -11 8 -13 18 -4 13 -5 11 -6 -5 -1 -31 -21 -29 -21 1
0 22 9 29 42 35 4 0 9 -3 12 -8z m63 -7 c-3 -3 -12 -4 -19 -1 -8 3 -5 6 6 6
11 1 17 -2 13 -5z m163 -4 c0 -5 -2 -10 -4 -10 -3 0 -8 5 -11 10 -3 6 -1 10 4
10 6 0 11 -4 11 -10z m180 -20 c0 -5 -2 -10 -4 -10 -3 0 -8 5 -11 10 -3 6 -1
10 4 10 6 0 11 -4 11 -10z m-384 -26 c-4 -9 -9 -15 -11 -12 -3 3 -3 13 1 22 4
9 9 15 11 12 3 -3 3 -13 -1 -22z m104 -4 c0 -5 -4 -10 -10 -10 -5 0 -10 5 -10
10 0 6 5 10 10 10 6 0 10 -4 10 -10z m80 -5 c0 -8 -7 -15 -16 -15 -14 0 -14 3
-4 15 7 8 14 15 16 15 2 0 4 -7 4 -15z m130 -73 c0 -7 -8 -12 -17 -10 -24 4
-27 24 -3 24 11 0 20 -6 20 -14z m-55 -72 c-3 -5 -13 -10 -21 -10 -8 0 -12 5
-9 10 3 6 13 10 21 10 8 0 12 -4 9 -10z m889 -56 c-10 -8 -13 -13 -7 -9 9 4
11 1 6 -11 -5 -15 -7 -15 -15 0 -5 9 -13 14 -19 11 -5 -3 -6 1 -3 9 3 9 18 16
32 16 25 0 25 0 6 -16z m953 -6 c-3 -8 -6 -5 -6 6 -1 11 2 17 5 13 3 -3 4 -12
1 -19z m-1927 -18 c0 -5 -4 -10 -10 -10 -5 0 -10 5 -10 10 0 6 5 10 10 10 6 0
10 -4 10 -10z m1817 -37 c-3 -10 -5 -2 -5 17 0 19 2 27 5 18 2 -10 2 -26 0
-35z m-1867 27 c0 -5 -5 -10 -11 -10 -5 0 -7 5 -4 10 3 6 8 10 11 10 2 0 4 -4
4 -10z m1086 -36 c-4 -9 -9 -15 -11 -12 -3 3 -3 13 1 22 4 9 9 15 11 12 3 -3
3 -13 -1 -22z m-966 -13 c0 -13 -2 -13 -9 -2 -7 11 -10 9 -16 -8 -6 -21 -7
-22 -21 -4 -15 21 -18 37 -5 28 5 -3 12 -1 16 4 9 15 35 1 35 -18z m850 -10
c0 -6 -4 -13 -10 -16 -5 -3 -10 1 -10 9 0 9 5 16 10 16 6 0 10 -4 10 -9z
m-730 -41 c0 -4 -6 -10 -14 -13 -10 -4 -12 0 -9 14 5 18 23 18 23 -1z m1627
-2 c-3 -8 -6 -5 -6 6 -1 11 2 17 5 13 3 -3 4 -12 1 -19z m0 -80 c-2 -13 -4 -3
-4 22 0 25 2 35 4 23 2 -13 2 -33 0 -45z m-976 29 c-10 -9 -11 -8 -5 6 3 10 9
15 12 12 3 -3 0 -11 -7 -18z m140 -10 c-8 -8 -11 -7 -11 4 0 20 13 34 18 19 3
-7 -1 -17 -7 -23z m209 23 c0 -5 -5 -10 -11 -10 -5 0 -7 5 -4 10 3 6 8 10 11
10 2 0 4 -4 4 -10z m-1210 -10 c0 -5 -2 -10 -4 -10 -3 0 -8 5 -11 10 -3 6 -1
10 4 10 6 0 11 -4 11 -10z m40 5 c0 -13 -24 -55 -32 -55 -5 0 -6 6 -1 13 4 6
6 20 5 30 -2 10 3 17 12 17 9 0 16 -2 16 -5z m877 -26 c-3 -10 -1 -19 5 -21 5
-2 2 -17 -6 -33 -9 -17 -16 -28 -17 -25 -6 48 -2 97 9 97 8 0 12 -8 9 -18z
m33 17 c0 -3 -4 -8 -10 -11 -5 -3 -10 -1 -10 4 0 6 5 11 10 11 6 0 10 -2 10
-4z m-834 -68 c4 -7 3 -10 -1 -5 -5 4 -17 0 -27 -10 -19 -17 -22 -15 -12 11 7
19 30 21 40 4z m985 -21 c-10 -9 -11 -8 -5 6 3 10 9 15 12 12 3 -3 0 -11 -7
-18z m-151 3 c0 -5 -5 -10 -11 -10 -5 0 -7 5 -4 10 3 6 8 10 11 10 2 0 4 -4 4
-10z m887 -12 c-3 -8 -6 -5 -6 6 -1 11 2 17 5 13 3 -3 4 -12 1 -19z m-1887 8
c0 -3 -4 -8 -10 -11 -5 -3 -10 -1 -10 4 0 6 5 11 10 11 6 0 10 -2 10 -4z
m1887 -68 c-3 -7 -5 -2 -5 12 0 14 2 19 5 13 2 -7 2 -19 0 -25z m-1657 -19 c0
-4 -7 -5 -17 -2 -12 5 -14 3 -8 -7 5 -8 4 -11 -3 -6 -16 9 -3 36 14 29 8 -3
14 -9 14 -14z m-99 -6 c12 -14 12 -16 0 -8 -11 6 -13 3 -9 -13 4 -12 2 -22 -3
-22 -5 0 -9 6 -9 14 0 8 -3 21 -6 30 -8 21 10 20 27 -1z m129 -23 c0 -12 -40
-33 -48 -26 -3 3 3 14 14 25 19 18 34 19 34 1z m1000 -20 c0 -16 -4 -30 -10
-30 -11 0 -14 43 -3 53 11 12 13 8 13 -23z m-214 -15 c-4 -14 -11 -25 -16 -25
-15 0 -12 48 3 53 18 6 20 1 13 -28z m-846 -25 c0 -5 -4 -10 -9 -10 -6 0 -13
5 -16 10 -3 6 1 10 9 10 9 0 16 -4 16 -10z m887 -42 c-3 -8 -6 -5 -6 6 -1 11
2 17 5 13 3 -3 4 -12 1 -19z m800 -50 c-3 -8 -6 -5 -6 6 -1 11 2 17 5 13 3 -3
4 -12 1 -19z m-842 -38 c-3 -5 -11 -10 -16 -10 -6 0 -7 5 -4 10 3 6 11 10 16
10 6 0 7 -4 4 -10z m-855 -25 c0 -8 -7 -15 -16 -15 -14 0 -14 3 -4 15 7 8 14
15 16 15 2 0 4 -7 4 -15z m1689 -69 c-9 -8 -10 -5 -5 14 3 14 6 32 7 40 1 8 4
2 6 -14 3 -16 -1 -34 -8 -40z m-652 32 c-3 -8 -6 -5 -6 6 -1 11 2 17 5 13 3
-3 4 -12 1 -19z m-188 -9 c-16 -10 -23 -4 -14 10 3 6 11 8 17 5 6 -4 5 -9 -3
-15z m223 -21 c-7 -7 -12 -8 -12 -2 0 14 12 26 19 19 2 -3 -1 -11 -7 -17z
m-966 -13 c14 -13 14 -15 1 -15 -9 0 -17 -6 -20 -12 -2 -7 -4 -1 -4 15 -1 31
3 33 23 12z m-141 -16 c11 -16 1 -19 -13 -3 -7 8 -8 14 -3 14 5 0 13 -5 16
-11z m1722 -21 c-3 -7 -5 -2 -5 12 0 14 2 19 5 13 2 -7 2 -19 0 -25z m-1600
-40 c-3 -7 -5 -2 -5 12 0 14 2 19 5 13 2 -7 2 -19 0 -25z m1600 -85 c-2 -21
-4 -6 -4 32 0 39 2 55 4 38 2 -18 2 -50 0 -70z m-811 49 c-4 -10 -13 -19 -21
-19 -19 0 -19 7 3 27 20 21 26 18 18 -8z m93 -30 c-12 -36 -34 -45 -23 -9 7
24 25 50 30 44 2 -2 -1 -18 -7 -35z m-1327 -7 c-4 -25 -19 -41 -28 -32 -5 5
24 57 31 57 1 0 0 -11 -3 -25z m498 3 c0 -16 -3 -19 -11 -11 -6 6 -8 16 -5 22
11 17 16 13 16 -11z m-40 -21 c0 -5 -4 -5 -10 -2 -5 3 -10 14 -10 23 0 15 2
15 10 2 5 -8 10 -19 10 -23z m50 -32 c10 -11 9 -17 -3 -29 -13 -14 -16 -14
-21 0 -15 39 0 58 24 29z m830 1 c0 -11 -19 -15 -25 -6 -3 5 1 10 9 10 9 0 16
-2 16 -4z m120 -26 c0 -5 -5 -10 -11 -10 -5 0 -7 5 -4 10 3 6 8 10 11 10 2 0
4 -4 4 -10z m587 -52 c-2 -13 -4 -3 -4 22 0 25 2 35 4 23 2 -13 2 -33 0 -45z
m0 -95 c-3 -10 -5 -4 -5 12 0 17 2 24 5 18 2 -7 2 -21 0 -30z m-1563 -114 c-4
-6 -11 -6 -20 2 -21 17 -17 31 6 19 11 -6 18 -15 14 -21z m66 16 c0 -8 5 -15
10 -15 6 0 10 -5 10 -10 0 -6 -8 -5 -20 2 -21 13 -27 38 -10 38 6 0 10 -7 10
-15z m1502 -72 c-2 -49 -6 -90 -8 -92 -2 -2 -4 37 -4 87 0 51 4 92 8 92 4 0 6
-39 4 -87z m-732 57 c0 -11 -7 -20 -15 -20 -18 0 -19 6 -2 25 16 19 17 18 17
-5z m-880 -10 c0 -5 -5 -10 -11 -10 -5 0 -7 5 -4 10 3 6 8 10 11 10 2 0 4 -4
4 -10z m883 -47 c-7 -2 -19 -2 -25 0 -7 3 -2 5 12 5 14 0 19 -2 13 -5z m-838
-23 c3 -5 1 -10 -4 -10 -6 0 -11 5 -11 10 0 6 2 10 4 10 3 0 8 -4 11 -10z
m855 1 c0 -15 -20 -24 -21 -9 0 10 -2 10 -6 0 -2 -6 -9 -10 -14 -6 -5 3 -7 10
-4 15 8 12 45 12 45 0z m-1176 -22 c-3 -5 -10 -7 -15 -3 -5 3 -7 10 -3 15 3 5
10 7 15 3 5 -3 7 -10 3 -15z m262 -92 c1 -20 -3 -34 -8 -31 -6 4 -7 16 -4 27
3 12 0 28 -7 36 -10 11 -9 13 3 9 9 -3 15 -18 16 -41z m124 12 c0 -5 -4 -9
-10 -9 -5 0 -10 -7 -10 -15 0 -8 -7 -15 -15 -15 -8 0 -15 7 -15 15 0 8 5 15
10 15 6 0 10 7 10 15 0 9 6 12 15 9 8 -4 15 -10 15 -15z m-1485 -19 c3 -5 1
-10 -4 -10 -6 0 -11 5 -11 10 0 6 2 10 4 10 3 0 8 -4 11 -10z m2992 -37 c-3
-10 -5 -4 -5 12 0 17 2 24 5 18 2 -7 2 -21 0 -30z m-2832 -2 c3 -5 1 -12 -5
-16 -5 -3 -10 1 -10 9 0 18 6 21 15 7z m142 -63 c-3 -7 -5 -2 -5 12 0 14 2 19
5 13 2 -7 2 -19 0 -25z m1093 22 c0 -5 -4 -10 -10 -10 -5 0 -10 5 -10 10 0 6
5 10 10 10 6 0 10 -4 10 -10z m1043 -6 c-3 -9 0 -20 8 -26 11 -8 10 -9 -4 -4
-10 3 -23 6 -28 6 -5 0 -4 9 3 20 15 24 30 27 21 4z m-167 -69 c-3 -8 -16 -15
-28 -14 l-23 0 23 9 c12 5 22 17 23 27 0 11 3 13 6 5 3 -7 2 -19 -1 -27z
m-1772 4 c-8 -14 -24 -10 -24 6 0 9 6 12 15 9 8 -4 12 -10 9 -15z m186 -53 c0
-8 -4 -17 -9 -21 -6 -3 -9 4 -8 15 1 23 17 28 17 6z m770 10 c0 -3 -4 -8 -10
-11 -5 -3 -10 -1 -10 4 0 6 5 11 10 11 6 0 10 -2 10 -4z m909 -62 c-15 -19
-28 -9 -22 16 4 16 8 18 19 9 11 -9 11 -15 3 -25z m-1240 -16 c-2 -13 3 -33 9
-45 11 -20 10 -23 -3 -23 -22 0 -48 27 -35 35 6 4 8 11 5 16 -4 5 -1 9 4 9 6
0 11 7 11 15 0 8 3 15 6 15 3 0 4 -10 3 -22z m361 -24 c0 -8 -5 -12 -10 -9 -6
4 -8 11 -5 16 9 14 15 11 15 -7z m-100 -30 c0 -8 -4 -14 -10 -14 -5 0 -10 4
-10 9 0 5 -3 18 -7 28 -6 16 -5 16 10 4 9 -7 17 -20 17 -27z m975 27 c3 -6 -4
-15 -15 -21 -22 -12 -23 -10 -14 14 7 18 20 21 29 7z m-1185 -17 c0 -8 -4 -12
-10 -9 -5 3 -10 10 -10 16 0 5 5 9 10 9 6 0 10 -7 10 -16z m160 -14 c0 -5 -4
-10 -10 -10 -5 0 -10 5 -10 10 0 6 5 10 10 10 6 0 10 -4 10 -10z m934 -19 c3
-4 -4 -17 -15 -27 -21 -19 -21 -18 -8 9 13 30 15 31 23 18z m46 -40 c-13 -25
-30 -36 -30 -20 0 6 8 18 18 25 23 18 24 17 12 -5z m-53 -23 c-3 -8 -6 -5 -6
6 -1 11 2 17 5 13 3 -3 4 -12 1 -19z m63 -8 c0 -5 -5 -10 -11 -10 -5 0 -7 5
-4 10 3 6 8 10 11 10 2 0 4 -4 4 -10z"/>
<path d="M1232 3690 c0 -14 2 -19 5 -12 2 6 2 18 0 25 -3 6 -5 1 -5 -13z"/>
<path d="M2812 3971 c-36 -19 -33 -31 7 -31 21 0 23 2 11 10 -11 7 -5 8 20 4
24 -4 31 -3 21 4 -7 5 -16 14 -20 20 -4 6 -18 4 -39 -7z"/>
<path d="M3010 3964 c0 -8 5 -12 10 -9 6 3 10 10 10 16 0 5 -4 9 -10 9 -5 0
-10 -7 -10 -16z"/>
<path d="M3045 3947 c-22 -24 -25 -35 -10 -40 10 -4 12 -1 8 10 -5 12 -2 15 9
10 10 -3 19 0 22 9 3 8 2 13 -3 9 -5 -3 -11 -1 -13 4 -1 5 -8 4 -13 -2z"/>
<path d="M3190 3945 c0 -8 2 -15 4 -15 2 0 6 7 10 15 3 8 1 15 -4 15 -6 0 -10
-7 -10 -15z"/>
<path d="M2832 3924 c-11 -12 -9 -16 10 -23 27 -10 43 6 26 26 -13 16 -20 16
-36 -3z"/>
<path d="M3110 3910 c0 -13 7 -20 20 -20 11 0 20 4 20 10 0 5 -9 14 -20 20
-17 9 -20 8 -20 -10z"/>
<path d="M3018 3883 c7 -3 16 -2 19 1 4 3 -2 6 -13 5 -11 0 -14 -3 -6 -6z"/>
<path d="M2855 3870 c-3 -5 -1 -10 4 -10 6 0 11 5 11 10 0 6 -2 10 -4 10 -3 0
-8 -4 -11 -10z"/>
<path d="M2880 3869 c0 -5 5 -7 10 -4 6 3 10 8 10 11 0 2 -4 4 -10 4 -5 0 -10
-5 -10 -11z"/>
<path d="M3111 3854 c0 -11 3 -14 6 -6 3 7 2 16 -1 19 -3 4 -6 -2 -5 -13z"/>
<path d="M2667 3829 c-10 -11 -22 -30 -27 -42 -5 -12 -9 -16 -9 -9 -1 6 -6 12
-12 12 -5 0 -8 -4 -4 -9 3 -5 -3 -12 -12 -14 -11 -3 -7 -5 10 -6 16 -1 30 5
33 14 4 8 12 15 19 15 8 0 20 14 29 30 17 36 0 42 -27 9z"/>
<path d="M3093 3838 c3 -9 1 -19 -6 -21 -7 -2 -10 -7 -7 -9 3 -3 16 -1 30 4
18 8 21 12 10 16 -8 3 -19 10 -23 16 -6 7 -7 5 -4 -6z"/>
<path d="M3273 3810 c4 -27 10 -30 25 -14 11 12 10 14 -3 14 -9 0 -13 5 -10
10 3 6 1 10 -4 10 -6 0 -10 -9 -8 -20z"/>
<path d="M3245 3800 c-3 -5 -1 -10 4 -10 6 0 11 5 11 10 0 6 -2 10 -4 10 -3 0
-8 -4 -11 -10z"/>
<path d="M2670 3766 c0 -9 5 -16 10 -16 6 0 10 4 10 9 0 6 -4 13 -10 16 -5 3
-10 -1 -10 -9z"/>
<path d="M3345 3720 c-3 -6 1 -7 9 -4 18 7 21 14 7 14 -6 0 -13 -4 -16 -10z"/>
<path d="M3390 3710 c0 -11 4 -20 9 -20 5 0 7 9 4 20 -3 11 -7 20 -9 20 -2 0
-4 -9 -4 -20z"/>
<path d="M3395 3670 c-3 -5 -1 -10 4 -10 6 0 11 5 11 10 0 6 -2 10 -4 10 -3 0
-8 -4 -11 -10z"/>
<path d="M2475 3652 c4 -14 -1 -25 -17 -36 -17 -12 -18 -16 -6 -16 9 0 19 8
22 17 6 14 9 15 15 4 7 -10 9 -10 14 2 3 8 -4 22 -15 31 -19 17 -19 16 -13 -2z"/>
<path d="M2646 3643 c-6 -14 -5 -15 5 -6 7 7 10 15 7 18 -3 3 -9 -2 -12 -12z"/>
<path d="M2610 3639 c0 -5 -4 -8 -8 -5 -5 3 -9 -1 -9 -9 0 -8 4 -15 9 -15 4 0
8 -5 8 -11 0 -5 -4 -8 -8 -5 -5 3 -9 -2 -9 -10 0 -10 7 -14 19 -11 10 3 18 0
18 -6 0 -7 7 1 15 17 16 30 20 50 7 28 -13 -20 -44 -3 -37 19 4 11 4 19 1 19
-3 0 -6 -5 -6 -11z"/>
<path d="M3406 3635 c-3 -9 0 -15 9 -15 9 0 12 6 9 15 -4 8 -7 15 -9 15 -2 0
-5 -7 -9 -15z"/>
<path d="M3396 3601 c-4 -5 1 -8 9 -7 21 3 31 16 12 16 -9 0 -18 -4 -21 -9z"/>
<path d="M3505 3600 c3 -5 8 -10 11 -10 2 0 4 5 4 10 0 6 -5 10 -11 10 -5 0
-7 -4 -4 -10z"/>
<path d="M3430 3578 c0 -9 5 -20 10 -23 13 -8 13 5 0 25 -8 13 -10 13 -10 -2z"/>
<path d="M2656 3533 c-6 -14 -5 -15 5 -6 7 7 10 15 7 18 -3 3 -9 -2 -12 -12z"/>
<path d="M3578 3513 c7 -3 16 -2 19 1 4 3 -2 6 -13 5 -11 0 -14 -3 -6 -6z"/>
<path d="M2580 3500 c0 -5 -8 -10 -17 -10 -13 -1 -9 -5 10 -16 33 -18 41 -14
32 15 -6 21 -25 29 -25 11z"/>
<path d="M2660 3501 c0 -6 4 -13 10 -16 6 -3 7 1 4 9 -7 18 -14 21 -14 7z"/>
<path d="M3550 3493 c1 -15 30 -47 37 -40 3 4 -3 16 -15 27 -12 12 -22 17 -22
13z"/>
<path d="M3585 3430 c-3 -5 -1 -10 4 -10 6 0 11 5 11 10 0 6 -2 10 -4 10 -3 0
-8 -4 -11 -10z"/>
<path d="M3720 3339 c0 -5 -4 -8 -9 -5 -5 3 -11 -9 -15 -27 -5 -25 -9 -29 -16
-17 -9 13 -11 13 -19 1 -10 -15 5 -58 16 -47 3 3 0 13 -8 23 -12 15 -12 16 2
11 9 -3 22 -2 30 2 8 6 16 4 21 -3 4 -7 8 7 8 31 0 23 -2 42 -5 42 -3 0 -5 -5
-5 -11z"/>
<path d="M2660 3329 c0 -5 5 -7 10 -4 6 3 10 8 10 11 0 2 -4 4 -10 4 -5 0 -10
-5 -10 -11z"/>
<path d="M3621 3323 c0 -13 1 -23 4 -23 12 0 55 24 55 32 0 5 -11 1 -24 -7
-23 -15 -25 -15 -29 2 -4 14 -5 13 -6 -4z"/>
<path d="M2670 3190 c0 -17 5 -30 11 -30 5 0 7 5 4 10 -4 6 -2 17 4 24 9 10 8
15 -4 20 -11 4 -15 -2 -15 -24z"/>
<path d="M2726 3175 c4 -8 8 -15 10 -15 2 0 4 7 4 15 0 8 -4 15 -10 15 -5 0
-7 -7 -4 -15z"/>
<path d="M2730 3106 c0 -8 4 -17 9 -20 5 -4 7 3 4 14 -6 23 -13 26 -13 6z"/>
<path d="M3720 3069 c0 -11 4 -18 10 -14 5 3 7 12 3 20 -7 21 -13 19 -13 -6z"/>
<path d="M2680 2974 c0 -8 5 -12 10 -9 6 3 10 10 10 16 0 5 -4 9 -10 9 -5 0
-10 -7 -10 -16z"/>
<path d="M2804 2915 c4 -24 16 -30 16 -7 0 12 -4 22 -9 22 -5 0 -8 -7 -7 -15z"/>
<path d="M3731 2912 c-7 -13 -11 -26 -8 -28 8 -8 29 25 25 38 -3 8 -9 4 -17
-10z"/>
<path d="M3517 2796 c-3 -8 0 -21 6 -30 11 -15 15 -15 31 -3 12 9 17 20 13 31
-8 20 -43 21 -50 2z"/>
<path d="M2873 2785 c0 -8 7 -15 15 -15 7 0 12 5 10 12 -6 18 -25 21 -25 3z"/>
<path d="M2840 2750 c0 -6 7 -13 15 -17 24 -9 27 1 5 15 -13 8 -20 8 -20 2z"/>
<path d="M2840 2680 c0 -5 7 -7 15 -4 8 4 15 8 15 10 0 2 -7 4 -15 4 -8 0 -15
-4 -15 -10z"/>
<path d="M2881 2674 c0 -11 3 -14 6 -6 3 7 2 16 -1 19 -3 4 -6 -2 -5 -13z"/>
<path d="M3304 2665 c-8 -20 13 -45 32 -38 19 7 18 39 -2 47 -22 8 -24 8 -30
-9z"/>
<path d="M2952 2635 c7 -16 19 -25 32 -24 17 1 18 2 4 6 -16 4 -22 15 -19 36
0 4 -6 7 -14 7 -12 0 -13 -4 -3 -25z"/>
<path d="M2905 2580 c3 -5 11 -10 16 -10 6 0 7 5 4 10 -3 6 -11 10 -16 10 -6
0 -7 -4 -4 -10z"/>
<path d="M2998 2563 c7 -3 16 -2 19 1 4 3 -2 6 -13 5 -11 0 -14 -3 -6 -6z"/>
<path d="M2860 2530 c0 -5 5 -10 10 -10 6 0 10 5 10 10 0 6 -4 10 -10 10 -5 0
-10 -4 -10 -10z"/>
<path d="M2910 2525 c0 -8 5 -15 11 -15 5 0 7 6 3 13 -5 8 -2 8 9 -2 9 -7 17
-20 17 -27 0 -16 2 -16 24 -8 9 3 16 14 16 23 0 14 -2 14 -11 1 -8 -13 -12
-12 -26 8 -18 25 -43 29 -43 7z"/>
<path d="M2990 2453 c0 -13 5 -23 10 -23 13 0 13 11 0 30 -8 12 -10 11 -10 -7z"/>
<path d="M3025 2430 c3 -5 12 -10 20 -10 8 0 17 5 20 10 4 6 -5 10 -20 10 -15
0 -24 -4 -20 -10z"/>
<path d="M3065 2410 c-3 -5 -1 -10 4 -10 6 0 11 5 11 10 0 6 -2 10 -4 10 -3 0
-8 -4 -11 -10z"/>
<path d="M2960 2230 c0 -5 5 -10 11 -10 5 0 7 5 4 10 -3 6 -8 10 -11 10 -2 0
-4 -4 -4 -10z"/>
<path d="M3057 2205 c-11 -11 -17 -11 -19 -3 -3 9 -6 9 -11 1 -5 -7 6 -18 28
-29 32 -15 38 -15 51 -2 18 18 8 48 -16 48 -10 0 -25 -7 -33 -15z"/>
<path d="M2972 2180 c6 -19 38 -26 38 -9 0 7 -3 9 -7 6 -3 -4 -13 -1 -21 6
-13 10 -14 9 -10 -3z"/>
<path d="M2950 2150 c0 -25 16 -44 25 -30 4 7 0 19 -9 28 -13 14 -16 14 -16 2z"/>
<path d="M3260 2089 c-10 -17 -9 -23 1 -30 24 -15 44 -5 44 21 0 32 -30 38
-45 9z"/>
<path d="M3216 2083 c-6 -14 -5 -15 5 -6 7 7 10 15 7 18 -3 3 -9 -2 -12 -12z"/>
<path d="M2990 2020 c19 -13 30 -13 30 0 0 6 -10 10 -22 10 -19 0 -20 -2 -8
-10z"/>
<path d="M3486 1995 c-22 -23 -1 -58 27 -44 25 14 33 39 16 50 -19 12 -25 11
-43 -6z"/>
<path d="M2933 1961 c-12 -10 -19 -21 -16 -25 10 -10 45 -7 38 4 -3 6 1 7 10
3 9 -3 20 -15 25 -27 7 -18 9 -19 15 -5 4 11 -3 26 -20 43 -30 31 -25 30 -52
7z"/>
<path d="M2858 1952 c7 -5 10 -17 7 -28 -6 -17 -6 -18 5 -1 12 19 6 37 -13 37
-9 0 -8 -3 1 -8z"/>
<path d="M2954 1898 c-10 -12 -14 -18 -7 -15 6 4 13 1 15 -5 3 -7 7 -1 10 15
6 33 6 33 -18 5z"/>
<path d="M2920 1852 c0 -12 19 -26 26 -19 2 2 -2 10 -11 17 -9 8 -15 8 -15 2z"/>
<path d="M3000 1809 c0 -5 5 -7 10 -4 6 3 10 8 10 11 0 2 -4 4 -10 4 -5 0 -10
-5 -10 -11z"/>
<path d="M2955 1800 c3 -5 8 -10 11 -10 2 0 4 5 4 10 0 6 -5 10 -11 10 -5 0
-7 -4 -4 -10z"/>
<path d="M2990 1780 c0 -5 5 -10 10 -10 6 0 10 5 10 10 0 6 -4 10 -10 10 -5 0
-10 -4 -10 -10z"/>
<path d="M2950 1700 c0 -5 7 -10 16 -10 8 0 12 5 9 10 -3 6 -10 10 -16 10 -5
0 -9 -4 -9 -10z"/>
<path d="M2920 1650 c0 -5 5 -10 10 -10 6 0 10 5 10 10 0 6 -4 10 -10 10 -5 0
-10 -4 -10 -10z"/>
<path d="M3505 1610 c-3 -5 -1 -10 4 -10 6 0 11 5 11 10 0 6 -2 10 -4 10 -3 0
-8 -4 -11 -10z"/>
<path d="M3535 1540 c3 -5 8 -10 11 -10 2 0 4 5 4 10 0 6 -5 10 -11 10 -5 0
-7 -4 -4 -10z"/>
<path d="M2990 1431 c0 -6 5 -13 10 -16 6 -3 10 1 10 9 0 9 -4 16 -10 16 -5 0
-10 -4 -10 -9z"/>
<path d="M2953 1423 c-15 -5 -17 -23 -4 -23 5 0 11 7 15 15 3 8 4 15 3 14 -1
0 -8 -3 -14 -6z"/>
<path d="M2915 1350 c3 -5 10 -10 16 -10 5 0 9 5 9 10 0 6 -7 10 -16 10 -8 0
-12 -4 -9 -10z"/>
<path d="M2970 1350 c0 -5 5 -10 11 -10 5 0 7 5 4 10 -3 6 -8 10 -11 10 -2 0
-4 -4 -4 -10z"/>
<path d="M2995 1170 c3 -5 10 -10 16 -10 5 0 9 5 9 10 0 6 -7 10 -16 10 -8 0
-12 -4 -9 -10z"/>
<path d="M3720 1050 c0 -5 5 -10 11 -10 5 0 7 5 4 10 -3 6 -8 10 -11 10 -2 0
-4 -4 -4 -10z"/>
<path d="M3716 1003 c9 -38 14 -42 14 -10 0 14 -5 29 -10 32 -7 4 -8 -3 -4
-22z"/>
<path d="M3015 991 c5 -17 3 -20 -12 -14 -14 5 -16 3 -6 -7 9 -10 15 -10 26
-2 8 7 17 9 20 5 4 -3 7 -2 7 3 0 5 -9 15 -21 22 -19 12 -20 11 -14 -7z"/>
<path d="M3061 994 c0 -11 3 -14 6 -6 3 7 2 16 -1 19 -3 4 -6 -2 -5 -13z"/>
<path d="M3616 955 c-3 -8 -1 -15 4 -15 13 0 22 18 11 24 -5 3 -11 -1 -15 -9z"/>
<path d="M3053 944 c-13 -34 0 -114 18 -114 13 0 11 44 -3 59 -9 10 -9 12 -1
7 6 -3 14 -2 18 4 3 5 -1 10 -9 10 -9 0 -16 9 -16 21 0 13 4 18 12 13 7 -4 8
-3 4 4 -10 16 -15 15 -23 -4z"/>
<path d="M2990 880 c12 -22 25 -26 35 -11 3 6 -3 15 -14 20 -28 16 -33 14 -21
-9z"/>
<path d="M2980 850 c0 -5 5 -10 10 -10 6 0 10 5 10 10 0 6 -4 10 -10 10 -5 0
-10 -4 -10 -10z"/>
<path d="M3080 756 c0 -2 9 -6 20 -9 11 -3 18 -1 14 4 -5 9 -34 13 -34 5z"/>
<path d="M3061 726 c4 -22 35 -30 46 -13 3 7 2 9 -2 4 -5 -4 -17 1 -28 10 -18
17 -19 17 -16 -1z"/>
<path d="M3053 594 c-20 -21 -16 -42 3 -22 9 9 15 21 13 26 -2 6 -9 4 -16 -4z"/>
<path d="M3794 354 c-1 -13 2 -24 7 -24 11 0 12 37 2 43 -5 3 -9 -6 -9 -19z"/>
<path d="M3764 346 c0 -13 4 -22 9 -19 10 6 9 43 -2 43 -5 0 -8 -11 -7 -24z"/>
<path d="M3146 333 c-6 -14 -5 -15 5 -6 7 7 10 15 7 18 -3 3 -9 -2 -12 -12z"/>
<path d="M3157 276 c-6 -15 6 -29 36 -39 14 -5 17 -1 17 23 0 25 -4 30 -24 30
-13 0 -26 -6 -29 -14z"/>
<path d="M3095 270 c-3 -5 1 -10 10 -10 9 0 13 5 10 10 -3 6 -8 10 -10 10 -2
0 -7 -4 -10 -10z"/>
<path d="M3427 262 c-26 -5 -19 -47 8 -47 11 0 21 8 23 19 5 23 -7 34 -31 28z"/>
<path d="M3131 244 c0 -11 3 -14 6 -6 3 7 2 16 -1 19 -3 4 -6 -2 -5 -13z"/>
<path d="M3075 221 c3 -6 -3 -14 -12 -20 -16 -9 -15 -10 7 -11 19 0 26 5 26
20 0 11 -6 20 -14 20 -7 0 -11 -4 -7 -9z"/>
<path d="M3150 190 l-35 -7 43 -2 c27 0 41 3 37 9 -3 6 -7 9 -8 9 -1 -1 -18
-5 -37 -9z"/>
<path d="M3697 169 c4 -13 8 -18 11 -10 2 7 -1 18 -6 23 -8 8 -9 4 -5 -13z"/>
</g>
</svg>
